<svg xmlns="http://www.w3.org/2000/svg" viewBox="0 0 32 32" shape-rendering="crispEdges"><rect x="16" y="7" width="1" height="1" fill="#844b3f"/><rect x="15" y="8" width="1" height="1" fill="#844b3f"/><rect x="16" y="8" width="1" height="17" fill="#ac7b62"/><rect x="17" y="8" width="1" height="17" fill="#1a1a1a"/><rect x="14" y="9" width="1" height="1" fill="#844b3f"/><rect x="15" y="9" width="1" height="1" fill="#ac7b62"/><rect x="12" y="10" width="2" height="1" fill="#844b3f"/><rect x="14" y="10" width="1" height="13" fill="#ac7b62"/><rect x="15" y="10" width="1" height="13" fill="#cdb27e"/><rect x="20" y="10" width="2" height="1" fill="#a83d1f"/><rect x="27" y="10" width="2" height="1" fill="#844b3f"/><rect x="11" y="11" width="1" height="1" fill="#844b3f"/><rect x="12" y="11" width="1" height="11" fill="#cdb27e"/><rect x="13" y="11" width="1" height="11" fill="#ac7b62"/><rect x="19" y="11" width="1" height="2" fill="#a83d1f"/><rect x="20" y="11" width="2" height="2" fill="#e99441"/><rect x="22" y="11" width="1" height="1" fill="#1a1a1a"/><rect x="26" y="11" width="1" height="1" fill="#844b3f"/><rect x="27" y="11" width="2" height="2" fill="#a83d1f"/><rect x="29" y="11" width="1" height="2" fill="#1a1a1a"/><rect x="4" y="12" width="7" height="1" fill="#844b3f"/><rect x="11" y="12" width="1" height="9" fill="#cdb27e"/><rect x="22" y="12" width="1" height="3" fill="#e99441"/><rect x="23" y="12" width="1" height="1" fill="#1a1a1a"/><rect x="25" y="12" width="2" height="1" fill="#a83d1f"/><rect x="3" y="13" width="1" height="6" fill="#844b3f"/><rect x="4" y="13" width="5" height="6" fill="#e0c69b"/><rect x="9" y="13" width="2" height="7" fill="#cdb27e"/><rect x="20" y="13" width="1" height="1" fill="#1a1a1a"/><rect x="21" y="13" width="1" height="1" fill="#e99441"/><rect x="23" y="13" width="1" height="5" fill="#c25828"/><rect x="24" y="13" width="1" height="1" fill="#1a1a1a"/><rect x="25" y="13" width="1" height="5" fill="#c25828"/><rect x="26" y="13" width="2" height="1" fill="#a83d1f"/><rect x="28" y="13" width="1" height="1" fill="#1a1a1a"/><rect x="21" y="14" width="1" height="1" fill="#1a1a1a"/><rect x="24" y="14" width="1" height="3" fill="#c25828"/><rect x="26" y="14" width="1" height="1" fill="#a83d1f"/><rect x="27" y="14" width="1" height="1" fill="#1a1a1a"/><rect x="22" y="15" width="1" height="1" fill="#1a1a1a"/><rect x="26" y="15" width="1" height="1" fill="#1a1a1a"/><rect x="21" y="16" width="1" height="1" fill="#a83d1f"/><rect x="22" y="16" width="1" height="3" fill="#e99441"/><rect x="26" y="16" width="1" height="3" fill="#a83d1f"/><rect x="27" y="16" width="1" height="1" fill="#1a1a1a"/><rect x="20" y="17" width="1" height="1" fill="#a83d1f"/><rect x="21" y="17" width="1" height="3" fill="#e99441"/><rect x="24" y="17" width="1" height="1" fill="#1a1a1a"/><rect x="27" y="17" width="1" height="3" fill="#a83d1f"/><rect x="28" y="17" width="1" height="1" fill="#1a1a1a"/><rect x="19" y="18" width="1" height="2" fill="#a83d1f"/><rect x="20" y="18" width="1" height="2" fill="#e99441"/><rect x="23" y="18" width="1" height="1" fill="#1a1a1a"/><rect x="25" y="18" width="1" height="1" fill="#1a1a1a"/><rect x="28" y="18" width="1" height="2" fill="#a83d1f"/><rect x="29" y="18" width="1" height="2" fill="#1a1a1a"/><rect x="4" y="19" width="5" height="1" fill="#1a1a1a"/><rect x="22" y="19" width="1" height="1" fill="#1a1a1a"/><rect x="26" y="19" width="1" height="1" fill="#1a1a1a"/><rect x="9" y="20" width="2" height="1" fill="#1a1a1a"/><rect x="20" y="20" width="2" height="1" fill="#1a1a1a"/><rect x="27" y="20" width="2" height="1" fill="#1a1a1a"/><rect x="11" y="21" width="1" height="1" fill="#1a1a1a"/><rect x="12" y="22" width="2" height="1" fill="#1a1a1a"/><rect x="14" y="23" width="1" height="1" fill="#1a1a1a"/><rect x="15" y="23" width="1" height="1" fill="#ac7b62"/><rect x="15" y="24" width="1" height="1" fill="#1a1a1a"/><rect x="16" y="25" width="1" height="1" fill="#1a1a1a"/></svg>
