<svg xmlns="http://www.w3.org/2000/svg" viewBox="0 0 32 32" shape-rendering="crispEdges"><rect x="7" y="2" width="14" height="1" fill="#844b3f"/><rect x="21" y="2" width="4" height="1" fill="#423d46"/><rect x="6" y="3" width="1" height="1" fill="#844b3f"/><rect x="7" y="3" width="4" height="4" fill="#e0c69b"/><rect x="11" y="3" width="5" height="4" fill="#cdb27e"/><rect x="16" y="3" width="5" height="4" fill="#ac7b62"/><rect x="21" y="3" width="4" height="4" fill="#844b3f"/><rect x="25" y="3" width="1" height="1" fill="#1a1a1a"/><rect x="5" y="4" width="1" height="2" fill="#844b3f"/><rect x="6" y="4" width="1" height="2" fill="#e0c69b"/><rect x="25" y="4" width="1" height="2" fill="#844b3f"/><rect x="26" y="4" width="1" height="2" fill="#1a1a1a"/><rect x="6" y="6" width="1" height="1" fill="#1a1a1a"/><rect x="25" y="6" width="1" height="1" fill="#1a1a1a"/><rect x="7" y="7" width="2" height="1" fill="#1a1a1a"/><rect x="9" y="7" width="5" height="3" fill="#f3e5b9"/><rect x="14" y="7" width="5" height="3" fill="#e0c69b"/><rect x="19" y="7" width="4" height="3" fill="#cdb27e"/><rect x="23" y="7" width="2" height="1" fill="#1a1a1a"/><rect x="8" y="8" width="1" height="17" fill="#844b3f"/><rect x="23" y="8" width="1" height="17" fill="#1a1a1a"/><rect x="9" y="10" width="3" height="15" fill="#f3e5b9"/><rect x="12" y="10" width="8" height="1" fill="#ac7b62"/><rect x="20" y="10" width="3" height="10" fill="#cdb27e"/><rect x="12" y="11" width="2" height="2" fill="#f3e5b9"/><rect x="14" y="11" width="5" height="2" fill="#e0c69b"/><rect x="19" y="11" width="1" height="2" fill="#cdb27e"/><rect x="12" y="13" width="8" height="1" fill="#ac7b62"/><rect x="12" y="14" width="2" height="2" fill="#f3e5b9"/><rect x="14" y="14" width="5" height="2" fill="#e0c69b"/><rect x="19" y="14" width="1" height="2" fill="#cdb27e"/><rect x="12" y="16" width="8" height="1" fill="#ac7b62"/><rect x="12" y="17" width="2" height="2" fill="#f3e5b9"/><rect x="14" y="17" width="5" height="1" fill="#e0c69b"/><rect x="19" y="17" width="1" height="2" fill="#cdb27e"/><rect x="14" y="18" width="2" height="1" fill="#e0c69b"/><rect x="16" y="18" width="1" height="3" fill="#e99441"/><rect x="17" y="18" width="2" height="1" fill="#c25828"/><rect x="12" y="19" width="3" height="1" fill="#ac7b62"/><rect x="15" y="19" width="1" height="3" fill="#e99441"/><rect x="17" y="19" width="1" height="2" fill="#e99441"/><rect x="18" y="19" width="1" height="3" fill="#c25828"/><rect x="19" y="19" width="1" height="5" fill="#a83d1f"/><rect x="12" y="20" width="2" height="5" fill="#f3e5b9"/><rect x="14" y="20" width="1" height="1" fill="#e99441"/><rect x="20" y="20" width="1" height="3" fill="#a83d1f"/><rect x="21" y="20" width="2" height="5" fill="#cdb27e"/><rect x="14" y="21" width="1" height="2" fill="#c25828"/><rect x="16" y="21" width="1" height="1" fill="#e0c69b"/><rect x="17" y="21" width="1" height="2" fill="#c25828"/><rect x="15" y="22" width="2" height="1" fill="#c25828"/><rect x="18" y="22" width="1" height="3" fill="#a83d1f"/><rect x="14" y="23" width="1" height="2" fill="#e0c69b"/><rect x="15" y="23" width="3" height="1" fill="#a83d1f"/><rect x="20" y="23" width="1" height="2" fill="#cdb27e"/><rect x="7" y="24" width="1" height="1" fill="#844b3f"/><rect x="15" y="24" width="1" height="1" fill="#e0c69b"/><rect x="16" y="24" width="2" height="1" fill="#a83d1f"/><rect x="19" y="24" width="1" height="1" fill="#cdb27e"/><rect x="24" y="24" width="1" height="1" fill="#423d46"/><rect x="6" y="25" width="1" height="1" fill="#844b3f"/><rect x="7" y="25" width="4" height="4" fill="#e0c69b"/><rect x="11" y="25" width="5" height="4" fill="#cdb27e"/><rect x="16" y="25" width="5" height="4" fill="#ac7b62"/><rect x="21" y="25" width="4" height="4" fill="#844b3f"/><rect x="25" y="25" width="1" height="1" fill="#1a1a1a"/><rect x="5" y="26" width="1" height="2" fill="#844b3f"/><rect x="6" y="26" width="1" height="2" fill="#e0c69b"/><rect x="25" y="26" width="1" height="2" fill="#844b3f"/><rect x="26" y="26" width="1" height="2" fill="#1a1a1a"/><rect x="6" y="28" width="1" height="1" fill="#1a1a1a"/><rect x="25" y="28" width="1" height="1" fill="#1a1a1a"/><rect x="7" y="29" width="18" height="1" fill="#1a1a1a"/></svg>
