<svg xmlns="http://www.w3.org/2000/svg" viewBox="0 0 32 32" shape-rendering="crispEdges"><rect x="20" y="0" width="1" height="1" fill="#b89a48"/><rect x="19" y="1" width="3" height="1" fill="#b89a48"/><rect x="18" y="2" width="3" height="1" fill="#b89a48"/><rect x="17" y="3" width="1" height="1" fill="#b89a48"/><rect x="18" y="3" width="2" height="1" fill="#f7ecb8"/><rect x="20" y="3" width="1" height="1" fill="#b89a48"/><rect x="16" y="4" width="1" height="1" fill="#b89a48"/><rect x="17" y="4" width="2" height="1" fill="#f7ecb8"/><rect x="19" y="4" width="1" height="1" fill="#e8ce72"/><rect x="20" y="4" width="1" height="1" fill="#b89a48"/><rect x="15" y="5" width="1" height="1" fill="#b89a48"/><rect x="16" y="5" width="2" height="1" fill="#f7ecb8"/><rect x="18" y="5" width="2" height="1" fill="#e8ce72"/><rect x="20" y="5" width="1" height="1" fill="#b89a48"/><rect x="15" y="6" width="1" height="1" fill="#b89a48"/><rect x="16" y="6" width="2" height="1" fill="#f7ecb8"/><rect x="18" y="6" width="1" height="1" fill="#e8ce72"/><rect x="19" y="6" width="1" height="1" fill="#b89a48"/><rect x="3" y="7" width="2" height="1" fill="#b89a48"/><rect x="14" y="7" width="1" height="1" fill="#b89a48"/><rect x="15" y="7" width="2" height="1" fill="#f7ecb8"/><rect x="17" y="7" width="2" height="1" fill="#e8ce72"/><rect x="19" y="7" width="1" height="1" fill="#b89a48"/><rect x="2" y="8" width="1" height="1" fill="#b89a48"/><rect x="3" y="8" width="2" height="1" fill="#e8ce72"/><rect x="5" y="8" width="1" height="1" fill="#b89a48"/><rect x="13" y="8" width="1" height="1" fill="#b89a48"/><rect x="14" y="8" width="2" height="1" fill="#f7ecb8"/><rect x="16" y="8" width="3" height="1" fill="#e8ce72"/><rect x="19" y="8" width="1" height="1" fill="#b89a48"/><rect x="2" y="9" width="1" height="1" fill="#b89a48"/><rect x="3" y="9" width="2" height="1" fill="#e8ce72"/><rect x="5" y="9" width="1" height="1" fill="#b89a48"/><rect x="12" y="9" width="1" height="1" fill="#b89a48"/><rect x="13" y="9" width="2" height="1" fill="#f7ecb8"/><rect x="15" y="9" width="4" height="1" fill="#e8ce72"/><rect x="19" y="9" width="1" height="1" fill="#b89a48"/><rect x="3" y="10" width="2" height="1" fill="#b89a48"/><rect x="12" y="10" width="1" height="1" fill="#b89a48"/><rect x="13" y="10" width="2" height="1" fill="#f7ecb8"/><rect x="15" y="10" width="3" height="1" fill="#e8ce72"/><rect x="18" y="10" width="1" height="1" fill="#b89a48"/><rect x="11" y="11" width="1" height="1" fill="#b89a48"/><rect x="12" y="11" width="2" height="1" fill="#f7ecb8"/><rect x="14" y="11" width="4" height="1" fill="#e8ce72"/><rect x="18" y="11" width="1" height="1" fill="#b89a48"/><rect x="10" y="12" width="1" height="1" fill="#b89a48"/><rect x="11" y="12" width="2" height="1" fill="#f7ecb8"/><rect x="13" y="12" width="5" height="1" fill="#e8ce72"/><rect x="18" y="12" width="10" height="1" fill="#b89a48"/><rect x="9" y="13" width="1" height="1" fill="#b89a48"/><rect x="10" y="13" width="2" height="1" fill="#f7ecb8"/><rect x="12" y="13" width="8" height="1" fill="#e8ce72"/><rect x="20" y="13" width="9" height="1" fill="#b89a48"/><rect x="8" y="14" width="1" height="1" fill="#b89a48"/><rect x="9" y="14" width="3" height="1" fill="#f7ecb8"/><rect x="12" y="14" width="8" height="1" fill="#e8ce72"/><rect x="20" y="14" width="8" height="1" fill="#b89a48"/><rect x="7" y="15" width="1" height="1" fill="#b89a48"/><rect x="8" y="15" width="3" height="1" fill="#f7ecb8"/><rect x="11" y="15" width="9" height="1" fill="#e8ce72"/><rect x="20" y="15" width="7" height="1" fill="#b89a48"/><rect x="6" y="16" width="1" height="1" fill="#b89a48"/><rect x="7" y="16" width="3" height="1" fill="#f7ecb8"/><rect x="10" y="16" width="10" height="1" fill="#e8ce72"/><rect x="20" y="16" width="6" height="1" fill="#b89a48"/><rect x="5" y="17" width="1" height="1" fill="#b89a48"/><rect x="6" y="17" width="4" height="1" fill="#f7ecb8"/><rect x="10" y="17" width="10" height="1" fill="#e8ce72"/><rect x="20" y="17" width="5" height="1" fill="#b89a48"/><rect x="4" y="18" width="1" height="1" fill="#b89a48"/><rect x="5" y="18" width="5" height="1" fill="#f7ecb8"/><rect x="10" y="18" width="10" height="1" fill="#e8ce72"/><rect x="20" y="18" width="4" height="1" fill="#b89a48"/><rect x="5" y="19" width="10" height="1" fill="#b89a48"/><rect x="15" y="19" width="5" height="1" fill="#e8ce72"/><rect x="20" y="19" width="3" height="1" fill="#b89a48"/><rect x="14" y="20" width="1" height="1" fill="#b89a48"/><rect x="15" y="20" width="5" height="1" fill="#e8ce72"/><rect x="20" y="20" width="2" height="1" fill="#b89a48"/><rect x="28" y="20" width="2" height="1" fill="#b89a48"/><rect x="14" y="21" width="1" height="1" fill="#b89a48"/><rect x="15" y="21" width="5" height="1" fill="#e8ce72"/><rect x="20" y="21" width="1" height="1" fill="#b89a48"/><rect x="27" y="21" width="1" height="1" fill="#b89a48"/><rect x="28" y="21" width="2" height="1" fill="#e8ce72"/><rect x="30" y="21" width="1" height="1" fill="#b89a48"/><rect x="13" y="22" width="1" height="1" fill="#b89a48"/><rect x="14" y="22" width="6" height="1" fill="#e8ce72"/><rect x="20" y="22" width="1" height="1" fill="#b89a48"/><rect x="27" y="22" width="1" height="1" fill="#b89a48"/><rect x="28" y="22" width="2" height="1" fill="#e8ce72"/><rect x="30" y="22" width="1" height="1" fill="#b89a48"/><rect x="13" y="23" width="1" height="1" fill="#b89a48"/><rect x="14" y="23" width="5" height="1" fill="#e8ce72"/><rect x="19" y="23" width="1" height="1" fill="#b89a48"/><rect x="28" y="23" width="2" height="1" fill="#b89a48"/><rect x="13" y="24" width="1" height="1" fill="#b89a48"/><rect x="14" y="24" width="4" height="1" fill="#e8ce72"/><rect x="18" y="24" width="1" height="1" fill="#b89a48"/><rect x="13" y="25" width="1" height="1" fill="#b89a48"/><rect x="14" y="25" width="3" height="1" fill="#e8ce72"/><rect x="17" y="25" width="1" height="1" fill="#b89a48"/><rect x="12" y="26" width="1" height="1" fill="#b89a48"/><rect x="13" y="26" width="3" height="1" fill="#e8ce72"/><rect x="16" y="26" width="1" height="1" fill="#b89a48"/><rect x="12" y="27" width="1" height="1" fill="#b89a48"/><rect x="13" y="27" width="2" height="1" fill="#e8ce72"/><rect x="15" y="27" width="1" height="1" fill="#b89a48"/><rect x="12" y="28" width="1" height="1" fill="#b89a48"/><rect x="13" y="28" width="1" height="1" fill="#e8ce72"/><rect x="14" y="28" width="1" height="1" fill="#b89a48"/><rect x="12" y="29" width="2" height="1" fill="#b89a48"/><rect x="11" y="30" width="1" height="1" fill="#b89a48"/><rect x="12" y="30" width="1" height="1" fill="#e8ce72"/><rect x="13" y="30" width="1" height="1" fill="#b89a48"/><rect x="12" y="31" width="1" height="1" fill="#b89a48"/></svg>