<svg xmlns="http://www.w3.org/2000/svg" viewBox="0 0 32 32" shape-rendering="crispEdges"><rect x="16" y="2" width="1" height="1" fill="#844b3f"/><rect x="8" y="3" width="3" height="1" fill="#6e4a19"/><rect x="11" y="3" width="5" height="1" fill="#844b3f"/><rect x="16" y="3" width="1" height="1" fill="#cdb27e"/><rect x="17" y="3" width="4" height="1" fill="#844b3f"/><rect x="21" y="3" width="3" height="1" fill="#6e4a19"/><rect x="7" y="4" width="1" height="1" fill="#6e4a19"/><rect x="8" y="4" width="3" height="1" fill="#f5d98c"/><rect x="11" y="4" width="4" height="1" fill="#e0c69b"/><rect x="15" y="4" width="6" height="1" fill="#cdb27e"/><rect x="21" y="4" width="4" height="1" fill="#6e4a19"/><rect x="7" y="5" width="1" height="1" fill="#6e4a19"/><rect x="8" y="5" width="3" height="1" fill="#f5d98c"/><rect x="11" y="5" width="4" height="1" fill="#e0c69b"/><rect x="15" y="5" width="6" height="1" fill="#cdb27e"/><rect x="21" y="5" width="3" height="1" fill="#6e4a19"/><rect x="24" y="5" width="1" height="1" fill="#844b3f"/><rect x="7" y="6" width="1" height="1" fill="#844b3f"/><rect x="8" y="6" width="3" height="1" fill="#f5d98c"/><rect x="11" y="6" width="4" height="1" fill="#e0c69b"/><rect x="15" y="6" width="6" height="1" fill="#cdb27e"/><rect x="21" y="6" width="3" height="1" fill="#6e4a19"/><rect x="24" y="6" width="1" height="1" fill="#ac7b62"/><rect x="25" y="6" width="1" height="1" fill="#844b3f"/><rect x="6" y="7" width="1" height="1" fill="#844b3f"/><rect x="7" y="7" width="1" height="1" fill="#e0c69b"/><rect x="8" y="7" width="3" height="1" fill="#f5d98c"/><rect x="11" y="7" width="4" height="1" fill="#e0c69b"/><rect x="15" y="7" width="6" height="1" fill="#cdb27e"/><rect x="21" y="7" width="3" height="1" fill="#6e4a19"/><rect x="24" y="7" width="2" height="1" fill="#ac7b62"/><rect x="26" y="7" width="1" height="1" fill="#844b3f"/><rect x="5" y="8" width="1" height="1" fill="#844b3f"/><rect x="6" y="8" width="1" height="1" fill="#f3e5b9"/><rect x="7" y="8" width="1" height="1" fill="#e0c69b"/><rect x="8" y="8" width="3" height="1" fill="#f5d98c"/><rect x="11" y="8" width="4" height="1" fill="#e0c69b"/><rect x="15" y="8" width="6" height="1" fill="#cdb27e"/><rect x="21" y="8" width="3" height="1" fill="#6e4a19"/><rect x="24" y="8" width="3" height="1" fill="#ac7b62"/><rect x="27" y="8" width="1" height="1" fill="#844b3f"/><rect x="5" y="9" width="1" height="1" fill="#844b3f"/><rect x="6" y="9" width="1" height="1" fill="#f3e5b9"/><rect x="7" y="9" width="1" height="1" fill="#e0c69b"/><rect x="8" y="9" width="3" height="1" fill="#f5d98c"/><rect x="11" y="9" width="4" height="1" fill="#e0c69b"/><rect x="15" y="9" width="6" height="1" fill="#cdb27e"/><rect x="21" y="9" width="3" height="1" fill="#6e4a19"/><rect x="24" y="9" width="3" height="1" fill="#ac7b62"/><rect x="27" y="9" width="1" height="1" fill="#844b3f"/><rect x="4" y="10" width="1" height="1" fill="#844b3f"/><rect x="5" y="10" width="2" height="1" fill="#f3e5b9"/><rect x="7" y="10" width="1" height="1" fill="#e0c69b"/><rect x="8" y="10" width="3" height="1" fill="#f5d98c"/><rect x="11" y="10" width="4" height="1" fill="#e0c69b"/><rect x="15" y="10" width="6" height="1" fill="#cdb27e"/><rect x="21" y="10" width="3" height="1" fill="#6e4a19"/><rect x="24" y="10" width="4" height="1" fill="#ac7b62"/><rect x="28" y="10" width="1" height="1" fill="#844b3f"/><rect x="3" y="11" width="1" height="1" fill="#844b3f"/><rect x="4" y="11" width="4" height="1" fill="#ac7b62"/><rect x="8" y="11" width="3" height="1" fill="#f5d98c"/><rect x="11" y="11" width="10" height="1" fill="#ac7b62"/><rect x="21" y="11" width="3" height="1" fill="#6e4a19"/><rect x="24" y="11" width="5" height="1" fill="#ac7b62"/><rect x="29" y="11" width="1" height="1" fill="#844b3f"/><rect x="3" y="12" width="1" height="1" fill="#844b3f"/><rect x="4" y="12" width="3" height="1" fill="#f3e5b9"/><rect x="7" y="12" width="1" height="1" fill="#e0c69b"/><rect x="8" y="12" width="3" height="1" fill="#f5d98c"/><rect x="11" y="12" width="4" height="1" fill="#e0c69b"/><rect x="15" y="12" width="6" height="1" fill="#cdb27e"/><rect x="21" y="12" width="3" height="1" fill="#6e4a19"/><rect x="24" y="12" width="5" height="1" fill="#ac7b62"/><rect x="29" y="12" width="1" height="1" fill="#844b3f"/><rect x="3" y="13" width="1" height="1" fill="#844b3f"/><rect x="4" y="13" width="3" height="1" fill="#f3e5b9"/><rect x="7" y="13" width="1" height="1" fill="#e0c69b"/><rect x="8" y="13" width="3" height="1" fill="#f5d98c"/><rect x="11" y="13" width="4" height="1" fill="#e0c69b"/><rect x="15" y="13" width="6" height="1" fill="#cdb27e"/><rect x="21" y="13" width="3" height="1" fill="#6e4a19"/><rect x="24" y="13" width="5" height="1" fill="#ac7b62"/><rect x="29" y="13" width="1" height="1" fill="#844b3f"/><rect x="3" y="14" width="1" height="1" fill="#844b3f"/><rect x="4" y="14" width="3" height="1" fill="#f3e5b9"/><rect x="7" y="14" width="1" height="1" fill="#e0c69b"/><rect x="8" y="14" width="3" height="1" fill="#f5d98c"/><rect x="11" y="14" width="2" height="1" fill="#e0c69b"/><rect x="13" y="14" width="1" height="1" fill="#f5d98c"/><rect x="14" y="14" width="2" height="1" fill="#d9a441"/><rect x="16" y="14" width="2" height="1" fill="#a9762a"/><rect x="18" y="14" width="1" height="1" fill="#6e4a19"/><rect x="19" y="14" width="2" height="1" fill="#cdb27e"/><rect x="21" y="14" width="3" height="1" fill="#6e4a19"/><rect x="24" y="14" width="5" height="1" fill="#ac7b62"/><rect x="29" y="14" width="1" height="1" fill="#844b3f"/><rect x="2" y="15" width="11" height="1" fill="#844b3f"/><rect x="13" y="15" width="1" height="1" fill="#f5d98c"/><rect x="14" y="15" width="2" height="1" fill="#d9a441"/><rect x="16" y="15" width="2" height="1" fill="#a9762a"/><rect x="18" y="15" width="1" height="1" fill="#6e4a19"/><rect x="19" y="15" width="11" height="1" fill="#844b3f"/><rect x="2" y="16" width="11" height="1" fill="#844b3f"/><rect x="13" y="16" width="1" height="1" fill="#f5d98c"/><rect x="14" y="16" width="1" height="1" fill="#d9a441"/><rect x="15" y="16" width="2" height="1" fill="#6e4a19"/><rect x="17" y="16" width="1" height="1" fill="#a9762a"/><rect x="18" y="16" width="1" height="1" fill="#6e4a19"/><rect x="19" y="16" width="10" height="1" fill="#844b3f"/><rect x="29" y="16" width="1" height="1" fill="#ac7b62"/><rect x="30" y="16" width="1" height="1" fill="#844b3f"/><rect x="2" y="17" width="1" height="1" fill="#844b3f"/><rect x="3" y="17" width="4" height="1" fill="#f3e5b9"/><rect x="7" y="17" width="1" height="1" fill="#e0c69b"/><rect x="8" y="17" width="3" height="1" fill="#f5d98c"/><rect x="11" y="17" width="2" height="1" fill="#e0c69b"/><rect x="13" y="17" width="1" height="1" fill="#f5d98c"/><rect x="14" y="17" width="1" height="1" fill="#d9a441"/><rect x="15" y="17" width="2" height="1" fill="#1a1a1a"/><rect x="17" y="17" width="1" height="1" fill="#a9762a"/><rect x="18" y="17" width="1" height="1" fill="#6e4a19"/><rect x="19" y="17" width="2" height="1" fill="#cdb27e"/><rect x="21" y="17" width="3" height="1" fill="#6e4a19"/><rect x="24" y="17" width="5" height="1" fill="#ac7b62"/><rect x="29" y="17" width="1" height="1" fill="#844b3f"/><rect x="2" y="18" width="1" height="1" fill="#844b3f"/><rect x="3" y="18" width="4" height="1" fill="#f3e5b9"/><rect x="7" y="18" width="1" height="1" fill="#e0c69b"/><rect x="8" y="18" width="3" height="1" fill="#f5d98c"/><rect x="11" y="18" width="2" height="1" fill="#e0c69b"/><rect x="13" y="18" width="1" height="1" fill="#f5d98c"/><rect x="14" y="18" width="1" height="1" fill="#d9a441"/><rect x="15" y="18" width="2" height="1" fill="#1a1a1a"/><rect x="17" y="18" width="1" height="1" fill="#a9762a"/><rect x="18" y="18" width="1" height="1" fill="#6e4a19"/><rect x="19" y="18" width="2" height="1" fill="#cdb27e"/><rect x="21" y="18" width="3" height="1" fill="#6e4a19"/><rect x="24" y="18" width="5" height="1" fill="#ac7b62"/><rect x="29" y="18" width="1" height="1" fill="#844b3f"/><rect x="2" y="19" width="1" height="1" fill="#844b3f"/><rect x="3" y="19" width="4" height="1" fill="#f3e5b9"/><rect x="7" y="19" width="1" height="1" fill="#e0c69b"/><rect x="8" y="19" width="3" height="1" fill="#f5d98c"/><rect x="11" y="19" width="2" height="1" fill="#e0c69b"/><rect x="13" y="19" width="1" height="1" fill="#f5d98c"/><rect x="14" y="19" width="1" height="1" fill="#d9a441"/><rect x="15" y="19" width="2" height="1" fill="#1a1a1a"/><rect x="17" y="19" width="1" height="1" fill="#a9762a"/><rect x="18" y="19" width="1" height="1" fill="#6e4a19"/><rect x="19" y="19" width="2" height="1" fill="#cdb27e"/><rect x="21" y="19" width="3" height="1" fill="#6e4a19"/><rect x="24" y="19" width="5" height="1" fill="#ac7b62"/><rect x="29" y="19" width="1" height="1" fill="#844b3f"/><rect x="2" y="20" width="1" height="1" fill="#844b3f"/><rect x="3" y="20" width="4" height="1" fill="#f3e5b9"/><rect x="7" y="20" width="1" height="1" fill="#e0c69b"/><rect x="8" y="20" width="3" height="1" fill="#f5d98c"/><rect x="11" y="20" width="2" height="1" fill="#e0c69b"/><rect x="13" y="20" width="1" height="1" fill="#f5d98c"/><rect x="14" y="20" width="2" height="1" fill="#d9a441"/><rect x="16" y="20" width="2" height="1" fill="#a9762a"/><rect x="18" y="20" width="1" height="1" fill="#6e4a19"/><rect x="19" y="20" width="2" height="1" fill="#cdb27e"/><rect x="21" y="20" width="3" height="1" fill="#6e4a19"/><rect x="24" y="20" width="5" height="1" fill="#ac7b62"/><rect x="29" y="20" width="1" height="1" fill="#844b3f"/><rect x="2" y="21" width="1" height="1" fill="#844b3f"/><rect x="3" y="21" width="2" height="1" fill="#f3e5b9"/><rect x="5" y="21" width="3" height="1" fill="#ac7b62"/><rect x="8" y="21" width="3" height="1" fill="#f5d98c"/><rect x="11" y="21" width="10" height="1" fill="#ac7b62"/><rect x="21" y="21" width="3" height="1" fill="#6e4a19"/><rect x="24" y="21" width="5" height="1" fill="#ac7b62"/><rect x="29" y="21" width="1" height="1" fill="#844b3f"/><rect x="2" y="22" width="1" height="1" fill="#844b3f"/><rect x="3" y="22" width="4" height="1" fill="#f3e5b9"/><rect x="7" y="22" width="1" height="1" fill="#e0c69b"/><rect x="8" y="22" width="3" height="1" fill="#f5d98c"/><rect x="11" y="22" width="4" height="1" fill="#e0c69b"/><rect x="15" y="22" width="6" height="1" fill="#cdb27e"/><rect x="21" y="22" width="3" height="1" fill="#6e4a19"/><rect x="24" y="22" width="5" height="1" fill="#ac7b62"/><rect x="29" y="22" width="1" height="1" fill="#844b3f"/><rect x="2" y="23" width="1" height="1" fill="#844b3f"/><rect x="3" y="23" width="4" height="1" fill="#f3e5b9"/><rect x="7" y="23" width="1" height="1" fill="#e0c69b"/><rect x="8" y="23" width="3" height="1" fill="#f5d98c"/><rect x="11" y="23" width="4" height="1" fill="#e0c69b"/><rect x="15" y="23" width="6" height="1" fill="#cdb27e"/><rect x="21" y="23" width="3" height="1" fill="#6e4a19"/><rect x="24" y="23" width="5" height="1" fill="#ac7b62"/><rect x="29" y="23" width="1" height="1" fill="#844b3f"/><rect x="2" y="24" width="1" height="1" fill="#844b3f"/><rect x="3" y="24" width="1" height="1" fill="#f3e5b9"/><rect x="4" y="24" width="4" height="1" fill="#ac7b62"/><rect x="8" y="24" width="3" height="1" fill="#f5d98c"/><rect x="11" y="24" width="10" height="1" fill="#ac7b62"/><rect x="21" y="24" width="3" height="1" fill="#6e4a19"/><rect x="24" y="24" width="5" height="1" fill="#ac7b62"/><rect x="29" y="24" width="1" height="1" fill="#844b3f"/><rect x="2" y="25" width="1" height="1" fill="#844b3f"/><rect x="3" y="25" width="4" height="1" fill="#f3e5b9"/><rect x="7" y="25" width="1" height="1" fill="#e0c69b"/><rect x="8" y="25" width="3" height="1" fill="#f5d98c"/><rect x="11" y="25" width="4" height="1" fill="#e0c69b"/><rect x="15" y="25" width="6" height="1" fill="#cdb27e"/><rect x="21" y="25" width="3" height="1" fill="#6e4a19"/><rect x="24" y="25" width="5" height="1" fill="#ac7b62"/><rect x="29" y="25" width="1" height="1" fill="#844b3f"/><rect x="2" y="26" width="1" height="1" fill="#844b3f"/><rect x="3" y="26" width="1" height="1" fill="#f3e5b9"/><rect x="4" y="26" width="24" height="1" fill="#844b3f"/><rect x="28" y="26" width="1" height="1" fill="#ac7b62"/><rect x="29" y="26" width="1" height="1" fill="#844b3f"/><rect x="3" y="27" width="26" height="1" fill="#844b3f"/><rect x="5" y="28" width="22" height="1" fill="#0d1223"/></svg>