<svg xmlns="http://www.w3.org/2000/svg" viewBox="0 0 80 80" shape-rendering="crispEdges">
  <!-- AQUAVERN - Standing water lizard (aquabe evo), 20x20 grid @ 4px -->

  <!-- ── 물 소용돌이 꼬리 (등 뒤) ── -->
  <!-- 꼬리 기둥 (오른쪽 위) -->
  <rect x="56" y="4"  width="4"  height="4"  fill="#1a1a1a"/>
  <rect x="60" y="4"  width="8"  height="4"  fill="#1166aa"/>
  <rect x="68" y="4"  width="4"  height="4"  fill="#1a1a1a"/>
  <rect x="60" y="8"  width="4"  height="4"  fill="#1a1a1a"/>
  <rect x="64" y="8"  width="12" height="4"  fill="#2288cc"/>
  <rect x="76" y="8"  width="4"  height="4"  fill="#1a1a1a"/>
  <rect x="64" y="12" width="4"  height="4"  fill="#1a1a1a"/>
  <rect x="68" y="12" width="8"  height="4"  fill="#55aaee"/>
  <rect x="76" y="12" width="4"  height="4"  fill="#1a1a1a"/>
  <!-- 소용돌이 -->
  <rect x="60" y="16" width="4"  height="4"  fill="#1a1a1a"/>
  <rect x="64" y="16" width="12" height="4"  fill="#3399cc"/>
  <rect x="76" y="16" width="4"  height="4"  fill="#1a1a1a"/>
  <rect x="56" y="20" width="4"  height="4"  fill="#1a1a1a"/>
  <rect x="60" y="20" width="16" height="4"  fill="#2277bb"/>
  <rect x="76" y="20" width="4"  height="4"  fill="#1a1a1a"/>
  <rect x="60" y="24" width="4"  height="4"  fill="#1a1a1a"/>
  <rect x="64" y="24" width="8"  height="4"  fill="#3399cc"/>
  <rect x="72" y="24" width="4"  height="4"  fill="#1a1a1a"/>
  <!-- 물 하이라이트 -->
  <rect x="64" y="12" width="8"  height="2"  fill="#88ccff"/>
  <rect x="64" y="20" width="8"  height="2"  fill="#88ccff"/>

  <!-- ── 머리 ── -->
  <rect x="8"  y="4"  width="4"  height="4"  fill="#1a1a1a"/>
  <rect x="12" y="4"  width="40" height="4"  fill="#6b4020"/>
  <rect x="16" y="4"  width="8"  height="4"  fill="#8a5533"/>
  <rect x="52" y="4"  width="4"  height="4"  fill="#1a1a1a"/>
  <rect x="4"  y="8"  width="4"  height="4"  fill="#1a1a1a"/>
  <rect x="8"  y="8"  width="48" height="4"  fill="#7a4a26"/>
  <rect x="56" y="8"  width="4"  height="4"  fill="#1a1a1a"/>

  <!-- ── 눈 (빨간) ── -->
  <rect x="4"  y="12" width="4"  height="4"  fill="#1a1a1a"/>
  <rect x="8"  y="12" width="8"  height="4"  fill="#7a4a26"/>
  <rect x="16" y="12" width="8"  height="4"  fill="#cc2222"/>
  <rect x="24" y="12" width="12" height="4"  fill="#7a4a26"/>
  <rect x="36" y="12" width="8"  height="4"  fill="#cc2222"/>
  <rect x="44" y="12" width="8"  height="4"  fill="#7a4a26"/>
  <rect x="52" y="12" width="4"  height="4"  fill="#1a1a1a"/>
  <!-- 눈 2줄 -->
  <rect x="4"  y="16" width="4"  height="4"  fill="#1a1a1a"/>
  <rect x="8"  y="16" width="8"  height="4"  fill="#7a4a26"/>
  <rect x="16" y="16" width="8"  height="4"  fill="#882222"/>
  <rect x="24" y="16" width="12" height="4"  fill="#7a4a26"/>
  <rect x="36" y="16" width="8"  height="4"  fill="#882222"/>
  <rect x="44" y="16" width="8"  height="4"  fill="#7a4a26"/>
  <rect x="52" y="16" width="4"  height="4"  fill="#1a1a1a"/>
  <rect x="18" y="12" width="2"  height="2"  fill="#ff4444"/>
  <rect x="38" y="12" width="2"  height="2"  fill="#ff4444"/>

  <!-- 주둥이 -->
  <rect x="4"  y="20" width="4"  height="4"  fill="#1a1a1a"/>
  <rect x="8"  y="20" width="48" height="4"  fill="#6b4020"/>
  <rect x="56" y="20" width="4"  height="4"  fill="#1a1a1a"/>
  <!-- 콧구멍 -->
  <rect x="24" y="20" width="4"  height="4"  fill="#3d2010"/>
  <rect x="36" y="20" width="4"  height="4"  fill="#3d2010"/>

  <!-- 입 (굳게 다문) -->
  <rect x="4"  y="24" width="4"  height="4"  fill="#1a1a1a"/>
  <rect x="8"  y="24" width="48" height="4"  fill="#6b4020"/>
  <rect x="56" y="24" width="4"  height="4"  fill="#1a1a1a"/>
  <rect x="16" y="25" width="32" height="2"  fill="#3d2010"/>

  <!-- ── 몸통 ── -->
  <rect x="4"  y="28" width="4"  height="4"  fill="#1a1a1a"/>
  <rect x="8"  y="28" width="48" height="4"  fill="#5d3818"/>
  <rect x="12" y="28" width="8"  height="4"  fill="#7a4a26"/>
  <rect x="56" y="28" width="4"  height="4"  fill="#1a1a1a"/>

  <!-- 배 (회색) -->
  <rect x="0"  y="32" width="4"  height="4"  fill="#1a1a1a"/>
  <rect x="4"  y="32" width="8"  height="4"  fill="#5d3818"/>
  <rect x="12" y="32" width="36" height="4"  fill="#9aaa8a"/>
  <rect x="48" y="32" width="8"  height="4"  fill="#5d3818"/>
  <rect x="56" y="32" width="4"  height="4"  fill="#1a1a1a"/>

  <rect x="0"  y="36" width="4"  height="8"  fill="#1a1a1a"/>
  <rect x="4"  y="36" width="8"  height="8"  fill="#5d3818"/>
  <rect x="12" y="36" width="36" height="8"  fill="#8a9a7a"/>
  <rect x="48" y="36" width="8"  height="8"  fill="#5d3818"/>
  <rect x="56" y="36" width="4"  height="8"  fill="#1a1a1a"/>
  <!-- 배 비늘 패턴 -->
  <rect x="16" y="36" width="4"  height="4"  fill="#7a8a6a"/>
  <rect x="24" y="36" width="4"  height="4"  fill="#7a8a6a"/>
  <rect x="32" y="36" width="4"  height="4"  fill="#7a8a6a"/>
  <rect x="40" y="36" width="4"  height="4"  fill="#7a8a6a"/>

  <!-- 팔 (앞발) -->
  <rect x="0"  y="32" width="4"  height="12" fill="#1a1a1a"/>
  <rect x="4"  y="32" width="4"  height="12" fill="#4d2e10"/>
  <rect x="52" y="32" width="4"  height="12" fill="#4d2e10"/>
  <rect x="56" y="32" width="4"  height="12" fill="#1a1a1a"/>
  <!-- 발톱 -->
  <rect x="0"  y="44" width="4"  height="4"  fill="#1a1a1a"/>
  <rect x="4"  y="44" width="4"  height="4"  fill="#ddddcc"/>
  <rect x="8"  y="44" width="4"  height="4"  fill="#ddddcc"/>
  <rect x="52" y="44" width="4"  height="4"  fill="#ddddcc"/>
  <rect x="56" y="44" width="4"  height="4"  fill="#ddddcc"/>
  <rect x="60" y="44" width="4"  height="4"  fill="#1a1a1a"/>

  <!-- 하단 몸통 -->
  <rect x="4"  y="44" width="4"  height="4"  fill="#1a1a1a"/>
  <rect x="8"  y="44" width="44" height="4"  fill="#6b4020"/>
  <rect x="16" y="44" width="28" height="4"  fill="#8a9a7a"/>
  <rect x="52" y="44" width="4"  height="4"  fill="#1a1a1a"/>
  <rect x="8"  y="48" width="4"  height="4"  fill="#1a1a1a"/>
  <rect x="12" y="48" width="36" height="4"  fill="#6b4020"/>
  <rect x="16" y="48" width="28" height="4"  fill="#8a9a7a"/>
  <rect x="48" y="48" width="4"  height="4"  fill="#1a1a1a"/>

  <!-- ── 다리 ── -->
  <rect x="8"  y="52" width="4"  height="4"  fill="#1a1a1a"/>
  <rect x="12" y="52" width="16" height="4"  fill="#5d3818"/>
  <rect x="28" y="52" width="8"  height="4"  fill="#1a1a1a"/>
  <rect x="36" y="52" width="16" height="4"  fill="#5d3818"/>
  <rect x="52" y="52" width="4"  height="4"  fill="#1a1a1a"/>
  <rect x="8"  y="56" width="4"  height="4"  fill="#1a1a1a"/>
  <rect x="12" y="56" width="16" height="4"  fill="#4d2e10"/>
  <rect x="28" y="56" width="8"  height="4"  fill="#1a1a1a"/>
  <rect x="36" y="56" width="16" height="4"  fill="#4d2e10"/>
  <rect x="52" y="56" width="4"  height="4"  fill="#1a1a1a"/>

  <!-- 발 + 발톱 -->
  <rect x="4"  y="60" width="4"  height="4"  fill="#1a1a1a"/>
  <rect x="8"  y="60" width="20" height="4"  fill="#3d2010"/>
  <rect x="28" y="60" width="8"  height="4"  fill="#1a1a1a"/>
  <rect x="36" y="60" width="20" height="4"  fill="#3d2010"/>
  <rect x="56" y="60" width="4"  height="4"  fill="#1a1a1a"/>
  <rect x="8"  y="60" width="4"  height="4"  fill="#ddddcc"/>
  <rect x="16" y="60" width="4"  height="4"  fill="#ddddcc"/>
  <rect x="24" y="60" width="4"  height="4"  fill="#ddddcc"/>
  <rect x="36" y="60" width="4"  height="4"  fill="#ddddcc"/>
  <rect x="44" y="60" width="4"  height="4"  fill="#ddddcc"/>
  <rect x="52" y="60" width="4"  height="4"  fill="#ddddcc"/>
  <rect x="4"  y="64" width="28" height="4"  fill="#1a1a1a"/>
  <rect x="36" y="64" width="24" height="4"  fill="#1a1a1a"/>
</svg>
