<svg xmlns="http://www.w3.org/2000/svg" viewBox="0 0 80 80" shape-rendering="crispEdges">
  <!-- CRYSTAFOX - White crystal fox (ice type), 20x20 grid @ 4px -->

  <!-- ── 수정 날개 (크리스탈 윙) ── -->
  <!-- 왼쪽 크리스탈 날개 -->
  <rect x="0"  y="24" width="4"  height="4"  fill="#1a1a1a"/>
  <rect x="4"  y="24" width="12" height="4"  fill="#55ccee"/>
  <rect x="16" y="24" width="4"  height="4"  fill="#1a1a1a"/>
  <rect x="0"  y="28" width="4"  height="8"  fill="#1a1a1a"/>
  <rect x="4"  y="28" width="12" height="8"  fill="#44bbdd"/>
  <rect x="6"  y="30" width="6"  height="4"  fill="#aaeeff"/>
  <rect x="16" y="28" width="4"  height="4"  fill="#1a1a1a"/>
  <rect x="0"  y="36" width="4"  height="4"  fill="#1a1a1a"/>
  <rect x="4"  y="36" width="8"  height="4"  fill="#3399bb"/>
  <rect x="12" y="36" width="4"  height="4"  fill="#1a1a1a"/>
  <!-- 작은 수정 조각들 -->
  <rect x="0"  y="40" width="4"  height="4"  fill="#1a1a1a"/>
  <rect x="4"  y="40" width="4"  height="4"  fill="#55ccee"/>
  <rect x="8"  y="40" width="4"  height="4"  fill="#1a1a1a"/>

  <!-- 오른쪽 크리스탈 날개 -->
  <rect x="60" y="24" width="4"  height="4"  fill="#1a1a1a"/>
  <rect x="64" y="24" width="12" height="4"  fill="#55ccee"/>
  <rect x="76" y="24" width="4"  height="4"  fill="#1a1a1a"/>
  <rect x="60" y="28" width="4"  height="8"  fill="#1a1a1a"/>
  <rect x="64" y="28" width="12" height="8"  fill="#44bbdd"/>
  <rect x="66" y="30" width="6"  height="4"  fill="#aaeeff"/>
  <rect x="76" y="28" width="4"  height="4"  fill="#1a1a1a"/>
  <rect x="60" y="36" width="4"  height="4"  fill="#1a1a1a"/>
  <rect x="64" y="36" width="8"  height="4"  fill="#3399bb"/>
  <rect x="72" y="36" width="4"  height="4"  fill="#1a1a1a"/>
  <rect x="64" y="40" width="8"  height="4"  fill="#55ccee"/>
  <rect x="72" y="40" width="4"  height="4"  fill="#1a1a1a"/>

  <!-- ── 이마 다이아몬드 수정 ── -->
  <rect x="32" y="0"  width="4"  height="4"  fill="#1a1a1a"/>
  <rect x="36" y="0"  width="4"  height="4"  fill="#88eeff"/>
  <rect x="40" y="0"  width="4"  height="4"  fill="#1a1a1a"/>
  <rect x="28" y="4"  width="4"  height="4"  fill="#1a1a1a"/>
  <rect x="32" y="4"  width="12" height="4"  fill="#55ccee"/>
  <rect x="36" y="4"  width="4"  height="4"  fill="#ffffff"/>
  <rect x="44" y="4"  width="4"  height="4"  fill="#1a1a1a"/>
  <rect x="28" y="8"  width="4"  height="4"  fill="#1a1a1a"/>
  <rect x="32" y="8"  width="12" height="4"  fill="#44aacc"/>
  <rect x="36" y="8"  width="4"  height="4"  fill="#88eeff"/>
  <rect x="44" y="8"  width="4"  height="4"  fill="#1a1a1a"/>
  <rect x="32" y="12" width="4"  height="4"  fill="#1a1a1a"/>
  <rect x="36" y="12" width="4"  height="4"  fill="#3399bb"/>
  <rect x="40" y="12" width="4"  height="4"  fill="#1a1a1a"/>

  <!-- ── 귀 (검은 끝, 흰 귀) ── -->
  <!-- 왼쪽 귀 -->
  <rect x="16" y="8"  width="4"  height="4"  fill="#1a1a1a"/>
  <rect x="20" y="8"  width="4"  height="4"  fill="#0d0d0d"/>
  <rect x="24" y="8"  width="4"  height="4"  fill="#1a1a1a"/>
  <rect x="16" y="12" width="4"  height="4"  fill="#1a1a1a"/>
  <rect x="20" y="12" width="8"  height="4"  fill="#222222"/>
  <rect x="28" y="12" width="4"  height="4"  fill="#1a1a1a"/>
  <rect x="16" y="16" width="4"  height="4"  fill="#1a1a1a"/>
  <rect x="20" y="16" width="8"  height="4"  fill="#eeeeee"/>
  <rect x="28" y="16" width="4"  height="4"  fill="#1a1a1a"/>
  <!-- 오른쪽 귀 -->
  <rect x="52" y="8"  width="4"  height="4"  fill="#1a1a1a"/>
  <rect x="56" y="8"  width="4"  height="4"  fill="#0d0d0d"/>
  <rect x="60" y="8"  width="4"  height="4"  fill="#1a1a1a"/>
  <rect x="48" y="12" width="4"  height="4"  fill="#1a1a1a"/>
  <rect x="52" y="12" width="8"  height="4"  fill="#222222"/>
  <rect x="60" y="12" width="4"  height="4"  fill="#1a1a1a"/>
  <rect x="48" y="16" width="4"  height="4"  fill="#1a1a1a"/>
  <rect x="52" y="16" width="8"  height="4"  fill="#eeeeee"/>
  <rect x="60" y="16" width="4"  height="4"  fill="#1a1a1a"/>

  <!-- ── 머리 ── -->
  <rect x="16" y="16" width="4"  height="4"  fill="#1a1a1a"/>
  <rect x="20" y="16" width="36" height="4"  fill="#f0f4ff"/>
  <rect x="56" y="16" width="4"  height="4"  fill="#1a1a1a"/>
  <rect x="12" y="20" width="4"  height="4"  fill="#1a1a1a"/>
  <rect x="16" y="20" width="44" height="4"  fill="#f4f8ff"/>
  <rect x="60" y="20" width="4"  height="4"  fill="#1a1a1a"/>

  <!-- ── 눈 (분홍) ── -->
  <rect x="12" y="24" width="4"  height="8"  fill="#1a1a1a"/>
  <rect x="16" y="24" width="8"  height="8"  fill="#f4f8ff"/>
  <rect x="24" y="24" width="8"  height="8"  fill="#ff88bb"/>
  <rect x="32" y="24" width="8"  height="8"  fill="#f4f8ff"/>
  <rect x="40" y="24" width="8"  height="8"  fill="#f4f8ff"/>
  <rect x="48" y="24" width="8"  height="8"  fill="#ff88bb"/>
  <rect x="56" y="24" width="8"  height="8"  fill="#f4f8ff"/>
  <rect x="64" y="24" width="4"  height="8"  fill="#1a1a1a"/>
  <!-- 눈 하이라이트 -->
  <rect x="26" y="24" width="2"  height="2"  fill="#ffffff"/>
  <rect x="50" y="24" width="2"  height="2"  fill="#ffffff"/>
  <!-- 눈 동공 -->
  <rect x="26" y="28" width="4"  height="4"  fill="#cc4488"/>
  <rect x="50" y="28" width="4"  height="4"  fill="#cc4488"/>

  <!-- ── 코 + 입 ── -->
  <rect x="12" y="32" width="4"  height="4"  fill="#1a1a1a"/>
  <rect x="16" y="32" width="44" height="4"  fill="#f4f8ff"/>
  <rect x="60" y="32" width="4"  height="4"  fill="#1a1a1a"/>
  <rect x="34" y="32" width="8"  height="4"  fill="#ffaabb"/>
  <!-- 입 -->
  <rect x="12" y="36" width="4"  height="4"  fill="#1a1a1a"/>
  <rect x="16" y="36" width="44" height="4"  fill="#f4f8ff"/>
  <rect x="60" y="36" width="4"  height="4"  fill="#1a1a1a"/>
  <rect x="34" y="37" width="8"  height="2"  fill="#cc5577"/>

  <!-- ── 청록 배 띠 ── -->
  <rect x="12" y="40" width="4"  height="4"  fill="#1a1a1a"/>
  <rect x="16" y="40" width="44" height="4"  fill="#f4f8ff"/>
  <rect x="60" y="40" width="4"  height="4"  fill="#1a1a1a"/>
  <!-- 배 띠 (청록) -->
  <rect x="20" y="40" width="36" height="4"  fill="#44ccbb"/>
  <rect x="20" y="42" width="36" height="2"  fill="#66eedd"/>

  <!-- ── 몸통 ── -->
  <rect x="8"  y="44" width="4"  height="4"  fill="#1a1a1a"/>
  <rect x="12" y="44" width="52" height="4"  fill="#eef4ff"/>
  <rect x="64" y="44" width="4"  height="4"  fill="#1a1a1a"/>
  <rect x="8"  y="48" width="4"  height="8"  fill="#1a1a1a"/>
  <rect x="12" y="48" width="52" height="8"  fill="#eef4ff"/>
  <rect x="64" y="48" width="4"  height="8"  fill="#1a1a1a"/>
  <!-- 배 (흰) -->
  <rect x="20" y="44" width="36" height="8"  fill="#ffffff"/>

  <!-- 하단 몸통 -->
  <rect x="12" y="56" width="4"  height="4"  fill="#1a1a1a"/>
  <rect x="16" y="56" width="44" height="4"  fill="#eef4ff"/>
  <rect x="60" y="56" width="4"  height="4"  fill="#1a1a1a"/>

  <!-- ── 다리 ── -->
  <rect x="12" y="60" width="4"  height="4"  fill="#1a1a1a"/>
  <rect x="16" y="60" width="16" height="4"  fill="#eef4ff"/>
  <rect x="32" y="60" width="12" height="4"  fill="#1a1a1a"/>
  <rect x="44" y="60" width="16" height="4"  fill="#eef4ff"/>
  <rect x="60" y="60" width="4"  height="4"  fill="#1a1a1a"/>
  <!-- 발 (수정 발톱) -->
  <rect x="8"  y="64" width="4"  height="4"  fill="#1a1a1a"/>
  <rect x="12" y="64" width="20" height="4"  fill="#ddeeff"/>
  <rect x="32" y="64" width="12" height="4"  fill="#1a1a1a"/>
  <rect x="44" y="64" width="20" height="4"  fill="#ddeeff"/>
  <rect x="64" y="64" width="4"  height="4"  fill="#1a1a1a"/>
  <rect x="12" y="64" width="4"  height="4"  fill="#55ccee"/>
  <rect x="20" y="64" width="4"  height="4"  fill="#55ccee"/>
  <rect x="44" y="64" width="4"  height="4"  fill="#55ccee"/>
  <rect x="52" y="64" width="4"  height="4"  fill="#55ccee"/>
  <rect x="8"  y="68" width="28" height="4"  fill="#1a1a1a"/>
  <rect x="44" y="68" width="24" height="4"  fill="#1a1a1a"/>
</svg>
