<svg xmlns="http://www.w3.org/2000/svg" viewBox="0 0 80 80">
  <!-- fluffy outline bumps -->
  <circle cx="40" cy="46" r="24" fill="#F5E0FF"/>
  <circle cx="22" cy="36" r="10" fill="#F5E0FF"/>
  <circle cx="58" cy="36" r="10" fill="#F5E0FF"/>
  <circle cx="40" cy="26" r="12" fill="#F5E0FF"/>
  <circle cx="28" cy="28" r="9" fill="#F5E0FF"/>
  <circle cx="52" cy="28" r="9" fill="#F5E0FF"/>
  <circle cx="18" cy="46" r="9" fill="#F5E0FF"/>
  <circle cx="62" cy="46" r="9" fill="#F5E0FF"/>
  <circle cx="30" cy="60" r="8" fill="#F5E0FF"/>
  <circle cx="50" cy="60" r="8" fill="#F5E0FF"/>
  <!-- core body -->
  <circle cx="40" cy="44" r="20" fill="#EED0FF"/>
  <!-- belly -->
  <ellipse cx="40" cy="50" rx="12" ry="10" fill="white" opacity="0.8"/>
  <!-- face -->
  <!-- eyes - big cute -->
  <circle cx="33" cy="40" r="5.5" fill="white"/>
  <circle cx="47" cy="40" r="5.5" fill="white"/>
  <circle cx="33.5" cy="41" r="3" fill="#5533AA"/>
  <circle cx="47.5" cy="41" r="3" fill="#5533AA"/>
  <circle cx="34.2" cy="40.2" r="1.2" fill="white"/>
  <circle cx="48.2" cy="40.2" r="1.2" fill="white"/>
  <!-- blushy cheeks -->
  <ellipse cx="26" cy="46" rx="5" ry="3" fill="#FFB3C8" opacity="0.7"/>
  <ellipse cx="54" cy="46" rx="5" ry="3" fill="#FFB3C8" opacity="0.7"/>
  <!-- nose -->
  <ellipse cx="40" cy="46" rx="2" ry="1.5" fill="#CC88BB"/>
  <!-- happy mouth -->
  <path d="M35,49 Q40,54 45,49" stroke="#AA66AA" stroke-width="1.8" fill="none" stroke-linecap="round"/>
  <!-- ear bumps on top -->
  <circle cx="28" cy="22" r="7" fill="#E8C0FF"/>
  <circle cx="52" cy="22" r="7" fill="#E8C0FF"/>
  <circle cx="28" cy="22" r="4" fill="#DDAAff" opacity="0.6"/>
  <circle cx="52" cy="22" r="4" fill="#DDAAff" opacity="0.6"/>
  <!-- tiny paws -->
  <ellipse cx="18" cy="58" rx="7" ry="5" fill="#EED0FF"/>
  <ellipse cx="62" cy="58" rx="7" ry="5" fill="#EED0FF"/>
  <ellipse cx="31" cy="70" rx="8" ry="4" fill="#EED0FF"/>
  <ellipse cx="49" cy="70" rx="8" ry="4" fill="#EED0FF"/>
</svg>
