<svg xmlns="http://www.w3.org/2000/svg" viewBox="0 0 80 80" shape-rendering="crispEdges">
  <!-- FROSTLET - Ice crystal creature, Pokemon BW style, 20x20 grid @ 4px -->
  <!-- ── 머리 크리스탈 (뾰족한 상단) ── -->
  <rect x="28" y="0"  width="8"  height="4"  fill="#1a1a1a"/>
  <rect x="28" y="0"  width="4"  height="4"  fill="#b8f0ff"/>
  <rect x="20" y="4"  width="24" height="4"  fill="#1a1a1a"/>
  <rect x="20" y="4"  width="20" height="4"  fill="#88d8f0"/>
  <rect x="24" y="4"  width="8"  height="4"  fill="#ccf4ff"/>
  <!-- ── 머리 ── -->
  <rect x="12" y="8"  width="4"  height="4"  fill="#1a1a1a"/>
  <rect x="16" y="8"  width="32" height="4"  fill="#88d8f0"/>
  <rect x="20" y="8"  width="8"  height="4"  fill="#aae8ff"/>
  <rect x="44" y="8"  width="4"  height="4"  fill="#aae8ff"/>
  <rect x="48" y="8"  width="4"  height="4"  fill="#1a1a1a"/>
  <!-- 머리 넓이 -->
  <rect x="8"  y="12" width="4"  height="4"  fill="#1a1a1a"/>
  <rect x="12" y="12" width="40" height="4"  fill="#88d8f0"/>
  <rect x="16" y="12" width="4"  height="4"  fill="#ccf4ff"/>
  <rect x="44" y="12" width="4"  height="4"  fill="#aae8ff"/>
  <rect x="52" y="12" width="4"  height="4"  fill="#1a1a1a"/>
  <!-- ── 눈 ── -->
  <rect x="8"  y="16" width="4"  height="4"  fill="#1a1a1a"/>
  <rect x="12" y="16" width="8"  height="4"  fill="#88d8f0"/>
  <rect x="20" y="16" width="4"  height="4"  fill="#ffffff"/>
  <rect x="24" y="16" width="4"  height="4"  fill="#1a1a1a"/>
  <rect x="28" y="16" width="8"  height="4"  fill="#88d8f0"/>
  <rect x="36" y="16" width="4"  height="4"  fill="#ffffff"/>
  <rect x="40" y="16" width="4"  height="4"  fill="#1a1a1a"/>
  <rect x="44" y="16" width="8"  height="4"  fill="#88d8f0"/>
  <rect x="52" y="16" width="4"  height="4"  fill="#1a1a1a"/>
  <!-- 눈 2줄 -->
  <rect x="8"  y="20" width="4"  height="4"  fill="#1a1a1a"/>
  <rect x="12" y="20" width="8"  height="4"  fill="#88d8f0"/>
  <rect x="20" y="20" width="4"  height="4"  fill="#ffffff"/>
  <rect x="24" y="20" width="4"  height="4"  fill="#1a1a1a"/>
  <rect x="28" y="20" width="8"  height="4"  fill="#88d8f0"/>
  <rect x="36" y="20" width="4"  height="4"  fill="#ffffff"/>
  <rect x="40" y="20" width="4"  height="4"  fill="#1a1a1a"/>
  <rect x="44" y="20" width="8"  height="4"  fill="#88d8f0"/>
  <rect x="52" y="20" width="4"  height="4"  fill="#1a1a1a"/>
  <!-- ── 볼 + 입 ── -->
  <rect x="8"  y="24" width="4"  height="4"  fill="#1a1a1a"/>
  <rect x="12" y="24" width="44" height="4"  fill="#88d8f0"/>
  <rect x="12" y="24" width="4"  height="4"  fill="#55c0e0"/>
  <rect x="52" y="24" width="4"  height="4"  fill="#55c0e0"/>
  <rect x="56" y="24" width="4"  height="4"  fill="#1a1a1a"/>
  <!-- 입 -->
  <rect x="28" y="24" width="8"  height="4"  fill="#3399bb"/>
  <!-- ── 몸통 ── -->
  <rect x="8"  y="28" width="4"  height="4"  fill="#1a1a1a"/>
  <rect x="12" y="28" width="40" height="4"  fill="#88d8f0"/>
  <rect x="52" y="28" width="4"  height="4"  fill="#1a1a1a"/>
  <!-- 몸통 배 (흰/하늘) -->
  <rect x="8"  y="32" width="4"  height="4"  fill="#1a1a1a"/>
  <rect x="12" y="32" width="8"  height="4"  fill="#88d8f0"/>
  <rect x="20" y="32" width="24" height="4"  fill="#ccf4ff"/>
  <rect x="44" y="32" width="8"  height="4"  fill="#88d8f0"/>
  <rect x="52" y="32" width="4"  height="4"  fill="#1a1a1a"/>
  <!-- 눈꽃 패턴 -->
  <rect x="8"  y="36" width="4"  height="4"  fill="#1a1a1a"/>
  <rect x="12" y="36" width="8"  height="4"  fill="#88d8f0"/>
  <rect x="20" y="36" width="4"  height="4"  fill="#ccf4ff"/>
  <rect x="24" y="36" width="4"  height="4"  fill="#3399bb"/>
  <rect x="28" y="36" width="4"  height="4"  fill="#ccf4ff"/>
  <rect x="32" y="36" width="4"  height="4"  fill="#3399bb"/>
  <rect x="36" y="36" width="4"  height="4"  fill="#ccf4ff"/>
  <rect x="40" y="36" width="4"  height="4"  fill="#3399bb"/>
  <rect x="44" y="36" width="8"  height="4"  fill="#88d8f0"/>
  <rect x="52" y="36" width="4"  height="4"  fill="#1a1a1a"/>
  <!-- ── 수정 팔 (옆으로 돌출) ── -->
  <!-- 왼쪽 수정 -->
  <rect x="0"  y="32" width="4"  height="4"  fill="#1a1a1a"/>
  <rect x="4"  y="32" width="4"  height="4"  fill="#3399bb"/>
  <rect x="0"  y="36" width="4"  height="4"  fill="#1a1a1a"/>
  <rect x="4"  y="36" width="4"  height="4"  fill="#55c0e0"/>
  <rect x="0"  y="40" width="4"  height="4"  fill="#1a1a1a"/>
  <rect x="4"  y="40" width="8"  height="4"  fill="#3399bb"/>
  <rect x="0"  y="44" width="4"  height="4"  fill="#1a1a1a"/>
  <rect x="4"  y="44" width="4"  height="4"  fill="#55c0e0"/>
  <rect x="0"  y="48" width="4"  height="4"  fill="#1a1a1a"/>
  <!-- 오른쪽 수정 -->
  <rect x="72" y="32" width="4"  height="4"  fill="#1a1a1a"/>
  <rect x="68" y="32" width="4"  height="4"  fill="#3399bb"/>
  <rect x="72" y="36" width="4"  height="4"  fill="#1a1a1a"/>
  <rect x="68" y="36" width="4"  height="4"  fill="#55c0e0"/>
  <rect x="72" y="40" width="4"  height="4"  fill="#1a1a1a"/>
  <rect x="64" y="40" width="8"  height="4"  fill="#3399bb"/>
  <rect x="72" y="44" width="4"  height="4"  fill="#1a1a1a"/>
  <rect x="68" y="44" width="4"  height="4"  fill="#55c0e0"/>
  <rect x="72" y="48" width="4"  height="4"  fill="#1a1a1a"/>
  <!-- ── 몸통 하단 ── -->
  <rect x="12" y="40" width="4"  height="4"  fill="#1a1a1a"/>
  <rect x="16" y="40" width="32" height="4"  fill="#88d8f0"/>
  <rect x="48" y="40" width="4"  height="4"  fill="#1a1a1a"/>
  <rect x="16" y="44" width="4"  height="4"  fill="#1a1a1a"/>
  <rect x="20" y="44" width="24" height="4"  fill="#88d8f0"/>
  <rect x="44" y="44" width="4"  height="4"  fill="#1a1a1a"/>
  <!-- ── 다리 ── -->
  <rect x="16" y="48" width="4"  height="4"  fill="#1a1a1a"/>
  <rect x="20" y="48" width="8"  height="4"  fill="#88d8f0"/>
  <rect x="28" y="48" width="8"  height="4"  fill="#1a1a1a"/>
  <rect x="36" y="48" width="8"  height="4"  fill="#88d8f0"/>
  <rect x="44" y="48" width="4"  height="4"  fill="#1a1a1a"/>
  <rect x="16" y="52" width="4"  height="4"  fill="#1a1a1a"/>
  <rect x="20" y="52" width="8"  height="4"  fill="#88d8f0"/>
  <rect x="28" y="52" width="8"  height="4"  fill="#1a1a1a"/>
  <rect x="36" y="52" width="8"  height="4"  fill="#88d8f0"/>
  <rect x="44" y="52" width="4"  height="4"  fill="#1a1a1a"/>
  <!-- 얼음 발 -->
  <rect x="12" y="56" width="4"  height="4"  fill="#1a1a1a"/>
  <rect x="16" y="56" width="12" height="4"  fill="#3399bb"/>
  <rect x="28" y="56" width="8"  height="4"  fill="#1a1a1a"/>
  <rect x="36" y="56" width="12" height="4"  fill="#3399bb"/>
  <rect x="48" y="56" width="4"  height="4"  fill="#1a1a1a"/>
  <rect x="12" y="60" width="20" height="4"  fill="#1a1a1a"/>
  <rect x="36" y="60" width="16" height="4"  fill="#1a1a1a"/>
</svg>
