<svg xmlns="http://www.w3.org/2000/svg" viewBox="0 0 80 80" shape-rendering="crispEdges">
  <!-- LEAFY - Green bear with leafy back, 20x20 grid @ 4px -->

  <!-- ── 등 잎사귀 (배경, 먼저 그림) ── -->
  <!-- 큰 왼쪽 잎 묶음 -->
  <rect x="4"  y="4"  width="4"  height="4"  fill="#1a1a1a"/>
  <rect x="8"  y="4"  width="12" height="4"  fill="#2d6e1a"/>
  <rect x="20" y="4"  width="4"  height="4"  fill="#1a1a1a"/>
  <rect x="4"  y="8"  width="4"  height="16" fill="#1a1a1a"/>
  <rect x="8"  y="8"  width="16" height="16" fill="#3a8a22"/>
  <rect x="10" y="10" width="8"  height="8"  fill="#4aaa2a"/>
  <rect x="24" y="8"  width="4"  height="8"  fill="#1a1a1a"/>
  <rect x="4"  y="24" width="20" height="4"  fill="#1a1a1a"/>
  <!-- 큰 오른쪽 잎 묶음 -->
  <rect x="56" y="4"  width="4"  height="4"  fill="#1a1a1a"/>
  <rect x="60" y="4"  width="12" height="4"  fill="#2d6e1a"/>
  <rect x="72" y="4"  width="4"  height="4"  fill="#1a1a1a"/>
  <rect x="68" y="8"  width="4"  height="16" fill="#1a1a1a"/>
  <rect x="52" y="8"  width="16" height="16" fill="#3a8a22"/>
  <rect x="58" y="10" width="8"  height="8"  fill="#4aaa2a"/>
  <rect x="52" y="8"  width="4"  height="8"  fill="#1a1a1a"/>
  <rect x="52" y="24" width="20" height="4"  fill="#1a1a1a"/>
  <!-- 중앙 잎 (맨 위 솟은 잎) -->
  <rect x="28" y="0"  width="4"  height="4"  fill="#1a1a1a"/>
  <rect x="32" y="0"  width="12" height="4"  fill="#55cc33"/>
  <rect x="44" y="0"  width="4"  height="4"  fill="#1a1a1a"/>
  <rect x="24" y="4"  width="4"  height="4"  fill="#1a1a1a"/>
  <rect x="28" y="4"  width="20" height="4"  fill="#44bb22"/>
  <rect x="36" y="4"  width="4"  height="4"  fill="#77ee44"/>
  <rect x="48" y="4"  width="4"  height="4"  fill="#1a1a1a"/>
  <rect x="24" y="8"  width="4"  height="8"  fill="#44bb22"/>
  <rect x="48" y="8"  width="4"  height="8"  fill="#44bb22"/>

  <!-- ── 귀 ── -->
  <rect x="20" y="8"  width="4"  height="4"  fill="#1a1a1a"/>
  <rect x="24" y="8"  width="8"  height="4"  fill="#55bb44"/>
  <rect x="32" y="8"  width="4"  height="4"  fill="#1a1a1a"/>
  <rect x="20" y="12" width="4"  height="4"  fill="#1a1a1a"/>
  <rect x="24" y="12" width="8"  height="4"  fill="#55bb44"/>
  <rect x="32" y="12" width="4"  height="4"  fill="#1a1a1a"/>
  <!-- 귀 안쪽 (갈색) -->
  <rect x="26" y="9"  width="4"  height="4"  fill="#7b5533"/>

  <rect x="44" y="8"  width="4"  height="4"  fill="#1a1a1a"/>
  <rect x="48" y="8"  width="8"  height="4"  fill="#55bb44"/>
  <rect x="56" y="8"  width="4"  height="4"  fill="#1a1a1a"/>
  <rect x="44" y="12" width="4"  height="4"  fill="#1a1a1a"/>
  <rect x="48" y="12" width="8"  height="4"  fill="#55bb44"/>
  <rect x="56" y="12" width="4"  height="4"  fill="#1a1a1a"/>
  <rect x="50" y="9"  width="4"  height="4"  fill="#7b5533"/>

  <!-- ── 머리 ── -->
  <rect x="16" y="16" width="4"  height="4"  fill="#1a1a1a"/>
  <rect x="20" y="16" width="36" height="4"  fill="#66cc44"/>
  <rect x="24" y="16" width="8"  height="4"  fill="#88ee55"/>
  <rect x="56" y="16" width="4"  height="4"  fill="#1a1a1a"/>
  <rect x="12" y="20" width="4"  height="4"  fill="#1a1a1a"/>
  <rect x="16" y="20" width="44" height="4"  fill="#66cc44"/>
  <rect x="60" y="20" width="4"  height="4"  fill="#1a1a1a"/>

  <!-- ── 눈 (갈색) ── -->
  <rect x="12" y="24" width="4"  height="8"  fill="#1a1a1a"/>
  <rect x="16" y="24" width="8"  height="8"  fill="#66cc44"/>
  <rect x="24" y="24" width="4"  height="8"  fill="#ffffff"/>
  <rect x="28" y="24" width="4"  height="8"  fill="#6b4a20"/>
  <rect x="32" y="24" width="8"  height="8"  fill="#66cc44"/>
  <rect x="40" y="24" width="8"  height="8"  fill="#66cc44"/>
  <rect x="48" y="24" width="4"  height="8"  fill="#6b4a20"/>
  <rect x="52" y="24" width="4"  height="8"  fill="#ffffff"/>
  <rect x="56" y="24" width="8"  height="8"  fill="#66cc44"/>
  <rect x="64" y="24" width="4"  height="8"  fill="#1a1a1a"/>
  <rect x="30" y="25" width="4"  height="8"  fill="#3d2010"/>
  <rect x="50" y="25" width="4"  height="8"  fill="#3d2010"/>
  <!-- 하이라이트 -->
  <rect x="25" y="25" width="2"  height="2"  fill="#ffffff"/>
  <rect x="53" y="25" width="2"  height="2"  fill="#ffffff"/>

  <!-- ── 볼 + 코 ── -->
  <rect x="12" y="32" width="4"  height="4"  fill="#1a1a1a"/>
  <rect x="16" y="32" width="44" height="4"  fill="#66cc44"/>
  <rect x="60" y="32" width="4"  height="4"  fill="#1a1a1a"/>
  <rect x="16" y="32" width="8"  height="4"  fill="#4aa033"/>
  <rect x="52" y="32" width="8"  height="4"  fill="#4aa033"/>
  <rect x="32" y="32" width="12" height="4"  fill="#3d2010"/>

  <!-- ── 입 (열린 웃음) ── -->
  <rect x="12" y="36" width="4"  height="4"  fill="#1a1a1a"/>
  <rect x="16" y="36" width="8"  height="4"  fill="#66cc44"/>
  <rect x="24" y="36" width="4"  height="4"  fill="#3d2010"/>
  <rect x="28" y="36" width="20" height="4"  fill="#220a00"/>
  <rect x="28" y="36" width="8"  height="2"  fill="#ffffff"/>
  <rect x="44" y="36" width="4"  height="2"  fill="#ffffff"/>
  <rect x="48" y="36" width="4"  height="4"  fill="#3d2010"/>
  <rect x="52" y="36" width="8"  height="4"  fill="#66cc44"/>
  <rect x="60" y="36" width="4"  height="4"  fill="#1a1a1a"/>

  <!-- ── 몸통 ── -->
  <rect x="8"  y="40" width="4"  height="4"  fill="#1a1a1a"/>
  <rect x="12" y="40" width="52" height="4"  fill="#55bb44"/>
  <rect x="64" y="40" width="4"  height="4"  fill="#1a1a1a"/>

  <!-- 팔 왼쪽 -->
  <rect x="4"  y="44" width="4"  height="8"  fill="#1a1a1a"/>
  <rect x="8"  y="44" width="4"  height="8"  fill="#44aa33"/>
  <!-- 배 (크림) -->
  <rect x="8"  y="44" width="4"  height="8"  fill="#55bb44"/>
  <rect x="12" y="44" width="8"  height="8"  fill="#55bb44"/>
  <rect x="20" y="44" width="36" height="8"  fill="#f0ddb0"/>
  <rect x="56" y="44" width="8"  height="8"  fill="#55bb44"/>
  <!-- 팔 오른쪽 -->
  <rect x="64" y="44" width="4"  height="8"  fill="#44aa33"/>
  <rect x="68" y="44" width="4"  height="8"  fill="#1a1a1a"/>

  <!-- 하단 몸통 -->
  <rect x="8"  y="52" width="4"  height="4"  fill="#1a1a1a"/>
  <rect x="12" y="52" width="52" height="4"  fill="#55bb44"/>
  <rect x="64" y="52" width="4"  height="4"  fill="#1a1a1a"/>
  <rect x="12" y="56" width="4"  height="4"  fill="#1a1a1a"/>
  <rect x="16" y="56" width="44" height="4"  fill="#55bb44"/>
  <rect x="60" y="56" width="4"  height="4"  fill="#1a1a1a"/>

  <!-- ── 다리 ── -->
  <rect x="12" y="60" width="4"  height="4"  fill="#1a1a1a"/>
  <rect x="16" y="60" width="16" height="4"  fill="#55bb44"/>
  <rect x="32" y="60" width="12" height="4"  fill="#1a1a1a"/>
  <rect x="44" y="60" width="16" height="4"  fill="#55bb44"/>
  <rect x="60" y="60" width="4"  height="4"  fill="#1a1a1a"/>
  <!-- 발 -->
  <rect x="8"  y="64" width="4"  height="4"  fill="#1a1a1a"/>
  <rect x="12" y="64" width="20" height="4"  fill="#44aa33"/>
  <rect x="32" y="64" width="12" height="4"  fill="#1a1a1a"/>
  <rect x="44" y="64" width="20" height="4"  fill="#44aa33"/>
  <rect x="64" y="64" width="4"  height="4"  fill="#1a1a1a"/>
  <rect x="8"  y="68" width="28" height="4"  fill="#1a1a1a"/>
  <rect x="44" y="68" width="24" height="4"  fill="#1a1a1a"/>
</svg>
