<svg xmlns="http://www.w3.org/2000/svg" viewBox="0 0 80 80" shape-rendering="crispEdges">
  <!-- MOSSEVO - Dark electric wolf (mossy evo1), 20x20 grid @ 4px -->

  <!-- ── 전기 갈기 스파이크 (위쪽) ── -->
  <!-- 왼쪽 스파이크 -->
  <rect x="8"  y="0"  width="4"  height="4"  fill="#1a1a1a"/>
  <rect x="12" y="0"  width="8"  height="4"  fill="#3399ff"/>
  <rect x="20" y="0"  width="4"  height="4"  fill="#1a1a1a"/>
  <rect x="8"  y="4"  width="4"  height="8"  fill="#1a1a1a"/>
  <rect x="12" y="4"  width="8"  height="8"  fill="#2277dd"/>
  <rect x="14" y="4"  width="4"  height="4"  fill="#66bbff"/>
  <rect x="20" y="4"  width="4"  height="4"  fill="#1a1a1a"/>
  <!-- 중앙 스파이크 (가장 높음) -->
  <rect x="28" y="0"  width="4"  height="4"  fill="#1a1a1a"/>
  <rect x="32" y="0"  width="12" height="4"  fill="#3399ff"/>
  <rect x="36" y="0"  width="4"  height="4"  fill="#88ccff"/>
  <rect x="44" y="0"  width="4"  height="4"  fill="#1a1a1a"/>
  <rect x="28" y="4"  width="4"  height="8"  fill="#1a1a1a"/>
  <rect x="32" y="4"  width="12" height="8"  fill="#2277dd"/>
  <rect x="34" y="4"  width="4"  height="4"  fill="#66bbff"/>
  <rect x="44" y="4"  width="4"  height="8"  fill="#1a1a1a"/>
  <!-- 오른쪽 스파이크 -->
  <rect x="52" y="0"  width="4"  height="4"  fill="#1a1a1a"/>
  <rect x="56" y="0"  width="8"  height="4"  fill="#3399ff"/>
  <rect x="64" y="0"  width="4"  height="4"  fill="#1a1a1a"/>
  <rect x="56" y="4"  width="8"  height="8"  fill="#2277dd"/>
  <rect x="58" y="4"  width="4"  height="4"  fill="#66bbff"/>
  <rect x="64" y="4"  width="4"  height="8"  fill="#1a1a1a"/>

  <!-- ── 귀 ── -->
  <rect x="12" y="8"  width="4"  height="4"  fill="#1a1a1a"/>
  <rect x="16" y="8"  width="8"  height="4"  fill="#0d1428"/>
  <rect x="24" y="8"  width="4"  height="4"  fill="#1a1a1a"/>
  <rect x="12" y="12" width="4"  height="4"  fill="#1a1a1a"/>
  <rect x="16" y="12" width="8"  height="4"  fill="#1a2040"/>
  <rect x="24" y="12" width="4"  height="4"  fill="#1a1a1a"/>

  <rect x="48" y="8"  width="4"  height="4"  fill="#1a1a1a"/>
  <rect x="52" y="8"  width="8"  height="4"  fill="#0d1428"/>
  <rect x="60" y="8"  width="4"  height="4"  fill="#1a1a1a"/>
  <rect x="48" y="12" width="4"  height="4"  fill="#1a1a1a"/>
  <rect x="52" y="12" width="8"  height="4"  fill="#1a2040"/>
  <rect x="60" y="12" width="4"  height="4"  fill="#1a1a1a"/>

  <!-- ── 머리 ── -->
  <rect x="12" y="12" width="4"  height="4"  fill="#1a1a1a"/>
  <rect x="16" y="12" width="44" height="4"  fill="#1c2244"/>
  <rect x="60" y="12" width="4"  height="4"  fill="#1a1a1a"/>
  <rect x="8"  y="16" width="4"  height="4"  fill="#1a1a1a"/>
  <rect x="12" y="16" width="52" height="4"  fill="#1e2448"/>
  <rect x="64" y="16" width="4"  height="4"  fill="#1a1a1a"/>

  <!-- ── 눈 (빨간) ── -->
  <rect x="8"  y="20" width="4"  height="4"  fill="#1a1a1a"/>
  <rect x="12" y="20" width="8"  height="4"  fill="#1e2448"/>
  <rect x="20" y="20" width="8"  height="4"  fill="#ff2222"/>
  <rect x="28" y="20" width="8"  height="4"  fill="#1e2448"/>
  <rect x="36" y="20" width="4"  height="4"  fill="#1e2448"/>
  <rect x="40" y="20" width="8"  height="4"  fill="#ff2222"/>
  <rect x="48" y="20" width="8"  height="4"  fill="#1e2448"/>
  <rect x="56" y="20" width="4"  height="4"  fill="#1a1a1a"/>
  <rect x="60" y="20" width="4"  height="4"  fill="#1a1a1a"/>
  <!-- 눈 하이라이트 -->
  <rect x="22" y="20" width="2"  height="2"  fill="#ff6666"/>
  <rect x="42" y="20" width="2"  height="2"  fill="#ff6666"/>

  <!-- 눈 아래 주둥이 -->
  <rect x="8"  y="24" width="4"  height="4"  fill="#1a1a1a"/>
  <rect x="12" y="24" width="52" height="4"  fill="#1e2448"/>
  <rect x="64" y="24" width="4"  height="4"  fill="#1a1a1a"/>

  <!-- ── 입 (이빨 드러남) ── -->
  <rect x="8"  y="28" width="4"  height="4"  fill="#1a1a1a"/>
  <rect x="12" y="28" width="12" height="4"  fill="#1e2448"/>
  <rect x="24" y="28" width="4"  height="4"  fill="#1a1a1a"/>
  <rect x="28" y="28" width="20" height="4"  fill="#220000"/>
  <rect x="28" y="28" width="4"  height="4"  fill="#ffffff"/>
  <rect x="44" y="28" width="4"  height="4"  fill="#ffffff"/>
  <rect x="48" y="28" width="4"  height="4"  fill="#1a1a1a"/>
  <rect x="52" y="28" width="12" height="4"  fill="#1e2448"/>
  <rect x="64" y="28" width="4"  height="4"  fill="#1a1a1a"/>

  <!-- ── 가슴 번개 마크 ── -->
  <rect x="8"  y="32" width="4"  height="4"  fill="#1a1a1a"/>
  <rect x="12" y="32" width="52" height="4"  fill="#1a2040"/>
  <rect x="64" y="32" width="4"  height="4"  fill="#1a1a1a"/>
  <!-- 번개 (가슴 중앙) -->
  <rect x="36" y="32" width="4"  height="4"  fill="#3399ff"/>
  <rect x="32" y="34" width="12" height="4"  fill="#3399ff"/>
  <rect x="36" y="36" width="4"  height="4"  fill="#3399ff"/>
  <rect x="34" y="32" width="2"  height="10" fill="#88ccff"/>

  <!-- ── 몸통 ── -->
  <rect x="4"  y="36" width="4"  height="4"  fill="#1a1a1a"/>
  <rect x="8"  y="36" width="60" height="4"  fill="#1a2040"/>
  <rect x="68" y="36" width="4"  height="4"  fill="#1a1a1a"/>
  <rect x="4"  y="40" width="4"  height="8"  fill="#1a1a1a"/>
  <rect x="8"  y="40" width="60" height="8"  fill="#1a2040"/>
  <rect x="68" y="40" width="4"  height="8"  fill="#1a1a1a"/>

  <!-- ── 앞발 (팔) ── -->
  <rect x="0"  y="36" width="4"  height="12" fill="#1a1a1a"/>
  <rect x="4"  y="36" width="4"  height="12" fill="#13183a"/>
  <rect x="64" y="36" width="4"  height="12" fill="#13183a"/>
  <rect x="68" y="36" width="4"  height="12" fill="#1a1a1a"/>

  <!-- ── 하단 몸통 ── -->
  <rect x="4"  y="48" width="4"  height="4"  fill="#1a1a1a"/>
  <rect x="8"  y="48" width="60" height="4"  fill="#16193a"/>
  <rect x="68" y="48" width="4"  height="4"  fill="#1a1a1a"/>
  <rect x="8"  y="52" width="4"  height="4"  fill="#1a1a1a"/>
  <rect x="12" y="52" width="52" height="4"  fill="#16193a"/>
  <rect x="64" y="52" width="4"  height="4"  fill="#1a1a1a"/>

  <!-- ── 다리 ── -->
  <rect x="8"  y="56" width="4"  height="4"  fill="#1a1a1a"/>
  <rect x="12" y="56" width="16" height="4"  fill="#1a2040"/>
  <rect x="28" y="56" width="20" height="4"  fill="#1a1a1a"/>
  <rect x="48" y="56" width="16" height="4"  fill="#1a2040"/>
  <rect x="64" y="56" width="4"  height="4"  fill="#1a1a1a"/>

  <!-- 발 (발톱 포함) -->
  <rect x="4"  y="60" width="4"  height="4"  fill="#1a1a1a"/>
  <rect x="8"  y="60" width="20" height="4"  fill="#13183a"/>
  <rect x="28" y="60" width="20" height="4"  fill="#1a1a1a"/>
  <rect x="48" y="60" width="20" height="4"  fill="#13183a"/>
  <rect x="68" y="60" width="4"  height="4"  fill="#1a1a1a"/>
  <!-- 발톱 (파란빛) -->
  <rect x="4"  y="64" width="4"  height="4"  fill="#1a1a1a"/>
  <rect x="8"  y="64" width="4"  height="4"  fill="#3399ff"/>
  <rect x="12" y="64" width="4"  height="4"  fill="#13183a"/>
  <rect x="16" y="64" width="4"  height="4"  fill="#3399ff"/>
  <rect x="20" y="64" width="4"  height="4"  fill="#13183a"/>
  <rect x="24" y="64" width="4"  height="4"  fill="#3399ff"/>
  <rect x="28" y="64" width="20" height="4"  fill="#1a1a1a"/>
  <rect x="48" y="64" width="4"  height="4"  fill="#3399ff"/>
  <rect x="52" y="64" width="4"  height="4"  fill="#13183a"/>
  <rect x="56" y="64" width="4"  height="4"  fill="#3399ff"/>
  <rect x="60" y="64" width="4"  height="4"  fill="#13183a"/>
  <rect x="64" y="64" width="4"  height="4"  fill="#3399ff"/>
  <rect x="68" y="64" width="4"  height="4"  fill="#1a1a1a"/>
  <rect x="4"  y="68" width="32" height="4"  fill="#1a1a1a"/>
  <rect x="48" y="68" width="24" height="4"  fill="#1a1a1a"/>
</svg>
