<svg xmlns="http://www.w3.org/2000/svg" viewBox="0 0 80 80" shape-rendering="crispEdges">
  <!-- MOSSYFINAL - Black electric wolf king (mossy final evo), 20x20 grid @ 4px -->

  <!-- ── 거대 전기 갈기 스파이크 ── -->
  <!-- 왼쪽 스파이크들 -->
  <rect x="0"  y="4"  width="4"  height="4"  fill="#1a1a1a"/>
  <rect x="4"  y="4"  width="8"  height="4"  fill="#22aaff"/>
  <rect x="12" y="4"  width="4"  height="4"  fill="#1a1a1a"/>
  <rect x="0"  y="8"  width="4"  height="12" fill="#1a1a1a"/>
  <rect x="4"  y="8"  width="8"  height="12" fill="#1188dd"/>
  <rect x="6"  y="8"  width="4"  height="6"  fill="#66ccff"/>
  <rect x="12" y="8"  width="4"  height="8"  fill="#1a1a1a"/>
  <!-- 중앙 좌 스파이크 -->
  <rect x="16" y="0"  width="4"  height="4"  fill="#1a1a1a"/>
  <rect x="20" y="0"  width="12" height="4"  fill="#33bbff"/>
  <rect x="32" y="0"  width="4"  height="4"  fill="#1a1a1a"/>
  <rect x="16" y="4"  width="4"  height="12" fill="#1a1a1a"/>
  <rect x="20" y="4"  width="12" height="12" fill="#1188dd"/>
  <rect x="22" y="4"  width="6"  height="6"  fill="#88ddff"/>
  <rect x="32" y="4"  width="4"  height="8"  fill="#1a1a1a"/>
  <!-- 중앙 최대 스파이크 -->
  <rect x="36" y="0"  width="4"  height="4"  fill="#1a1a1a"/>
  <rect x="40" y="0"  width="8"  height="4"  fill="#44ccff"/>
  <rect x="48" y="0"  width="4"  height="4"  fill="#1a1a1a"/>
  <rect x="36" y="4"  width="4"  height="12" fill="#1a1a1a"/>
  <rect x="40" y="4"  width="8"  height="12" fill="#1188dd"/>
  <rect x="42" y="4"  width="4"  height="6"  fill="#99eeff"/>
  <rect x="48" y="4"  width="4"  height="12" fill="#1a1a1a"/>
  <!-- 오른쪽 스파이크들 -->
  <rect x="56" y="4"  width="4"  height="4"  fill="#1a1a1a"/>
  <rect x="60" y="4"  width="8"  height="4"  fill="#22aaff"/>
  <rect x="68" y="4"  width="4"  height="4"  fill="#1a1a1a"/>
  <rect x="60" y="8"  width="8"  height="12" fill="#1188dd"/>
  <rect x="62" y="8"  width="4"  height="6"  fill="#66ccff"/>
  <rect x="68" y="8"  width="4"  height="12" fill="#1a1a1a"/>
  <!-- 갈기 하단 연결 -->
  <rect x="0"  y="16" width="4"  height="4"  fill="#1a1a1a"/>
  <rect x="4"  y="16" width="68" height="4"  fill="#1188dd"/>
  <rect x="72" y="16" width="4"  height="4"  fill="#1a1a1a"/>
  <!-- 갈기 glow 라인 -->
  <rect x="4"  y="18" width="64" height="2"  fill="#55ccff"/>

  <!-- ── 귀 ── -->
  <rect x="8"  y="16" width="4"  height="8"  fill="#1a1a1a"/>
  <rect x="12" y="16" width="8"  height="8"  fill="#080d20"/>
  <rect x="20" y="16" width="4"  height="4"  fill="#1a1a1a"/>
  <rect x="52" y="16" width="4"  height="4"  fill="#1a1a1a"/>
  <rect x="56" y="16" width="8"  height="8"  fill="#080d20"/>
  <rect x="64" y="20" width="4"  height="4"  fill="#1a1a1a"/>

  <!-- ── 머리 ── -->
  <rect x="8"  y="20" width="4"  height="4"  fill="#1a1a1a"/>
  <rect x="12" y="20" width="52" height="4"  fill="#0d1230"/>
  <rect x="64" y="20" width="4"  height="4"  fill="#1a1a1a"/>
  <rect x="4"  y="24" width="4"  height="4"  fill="#1a1a1a"/>
  <rect x="8"  y="24" width="60" height="4"  fill="#0d1230"/>
  <rect x="68" y="24" width="4"  height="4"  fill="#1a1a1a"/>

  <!-- ── 눈 (파란 네온) ── -->
  <rect x="4"  y="28" width="4"  height="4"  fill="#1a1a1a"/>
  <rect x="8"  y="28" width="12" height="4"  fill="#0d1230"/>
  <rect x="20" y="28" width="8"  height="4"  fill="#22aaff"/>
  <rect x="28" y="28" width="8"  height="4"  fill="#0d1230"/>
  <rect x="36" y="28" width="4"  height="4"  fill="#0d1230"/>
  <rect x="40" y="28" width="8"  height="4"  fill="#22aaff"/>
  <rect x="48" y="28" width="12" height="4"  fill="#0d1230"/>
  <rect x="60" y="28" width="4"  height="4"  fill="#1a1a1a"/>
  <rect x="64" y="28" width="4"  height="4"  fill="#1a1a1a"/>
  <!-- 눈 glow -->
  <rect x="22" y="28" width="4"  height="2"  fill="#88ddff"/>
  <rect x="42" y="28" width="4"  height="2"  fill="#88ddff"/>

  <!-- 주둥이 -->
  <rect x="4"  y="32" width="4"  height="8"  fill="#1a1a1a"/>
  <rect x="8"  y="32" width="60" height="8"  fill="#0d1230"/>
  <rect x="68" y="32" width="4"  height="8"  fill="#1a1a1a"/>

  <!-- 입 (이빨) -->
  <rect x="20" y="36" width="4"  height="4"  fill="#1a1a1a"/>
  <rect x="24" y="36" width="28" height="4"  fill="#110000"/>
  <rect x="24" y="36" width="4"  height="4"  fill="#ffffff"/>
  <rect x="32" y="36" width="4"  height="4"  fill="#ffffff"/>
  <rect x="40" y="36" width="4"  height="4"  fill="#ffffff"/>
  <rect x="48" y="36" width="4"  height="4"  fill="#1a1a1a"/>

  <!-- ── 몸통 (네온 라인) ── -->
  <rect x="0"  y="40" width="4"  height="4"  fill="#1a1a1a"/>
  <rect x="4"  y="40" width="68" height="4"  fill="#080d20"/>
  <rect x="72" y="40" width="4"  height="4"  fill="#1a1a1a"/>
  <!-- 네온 라인 패턴 -->
  <rect x="0"  y="44" width="4"  height="8"  fill="#1a1a1a"/>
  <rect x="4"  y="44" width="68" height="8"  fill="#080d20"/>
  <rect x="72" y="44" width="4"  height="8"  fill="#1a1a1a"/>
  <!-- 가슴 네온 라인들 -->
  <rect x="20" y="42" width="36" height="2"  fill="#22aaff"/>
  <rect x="16" y="46" width="4"  height="4"  fill="#22aaff"/>
  <rect x="56" y="46" width="4"  height="4"  fill="#22aaff"/>
  <rect x="24" y="48" width="28" height="2"  fill="#22aaff"/>

  <!-- 앞발 -->
  <rect x="0"  y="40" width="4"  height="16" fill="#1a1a1a"/>
  <rect x="4"  y="40" width="4"  height="16" fill="#080d20"/>
  <rect x="68" y="40" width="4"  height="16" fill="#080d20"/>
  <rect x="72" y="40" width="4"  height="16" fill="#1a1a1a"/>
  <!-- 팔 네온 선 -->
  <rect x="5"  y="44" width="2"  height="8"  fill="#22aaff"/>
  <rect x="69" y="44" width="2"  height="8"  fill="#22aaff"/>

  <!-- 하단 몸통 -->
  <rect x="4"  y="52" width="4"  height="4"  fill="#1a1a1a"/>
  <rect x="8"  y="52" width="60" height="4"  fill="#080d20"/>
  <rect x="68" y="52" width="4"  height="4"  fill="#1a1a1a"/>
  <rect x="8"  y="56" width="4"  height="4"  fill="#1a1a1a"/>
  <rect x="12" y="56" width="52" height="4"  fill="#080d20"/>
  <rect x="64" y="56" width="4"  height="4"  fill="#1a1a1a"/>

  <!-- 다리 -->
  <rect x="8"  y="60" width="4"  height="4"  fill="#1a1a1a"/>
  <rect x="12" y="60" width="16" height="4"  fill="#0d1230"/>
  <rect x="28" y="60" width="20" height="4"  fill="#1a1a1a"/>
  <rect x="48" y="60" width="16" height="4"  fill="#0d1230"/>
  <rect x="64" y="60" width="4"  height="4"  fill="#1a1a1a"/>

  <!-- 발 + 발톱 네온 -->
  <rect x="4"  y="64" width="4"  height="4"  fill="#1a1a1a"/>
  <rect x="8"  y="64" width="20" height="4"  fill="#080d20"/>
  <rect x="28" y="64" width="20" height="4"  fill="#1a1a1a"/>
  <rect x="48" y="64" width="20" height="4"  fill="#080d20"/>
  <rect x="68" y="64" width="4"  height="4"  fill="#1a1a1a"/>
  <rect x="8"  y="64" width="4"  height="4"  fill="#22aaff"/>
  <rect x="16" y="64" width="4"  height="4"  fill="#22aaff"/>
  <rect x="24" y="64" width="4"  height="4"  fill="#22aaff"/>
  <rect x="48" y="64" width="4"  height="4"  fill="#22aaff"/>
  <rect x="56" y="64" width="4"  height="4"  fill="#22aaff"/>
  <rect x="64" y="64" width="4"  height="4"  fill="#22aaff"/>
  <rect x="4"  y="68" width="32" height="4"  fill="#1a1a1a"/>
  <rect x="48" y="68" width="24" height="4"  fill="#1a1a1a"/>
</svg>
