<svg xmlns="http://www.w3.org/2000/svg" viewBox="0 0 80 80" shape-rendering="crispEdges">
  <!-- ZAPBEAR - Electric bear, Pokemon BW style, 20x20 grid @ 4px -->
  <!-- ── 귀 (둥글고 큰 곰 귀) ── -->
  <rect x="4"  y="0"  width="16" height="4"  fill="#1a1a1a"/>
  <rect x="4"  y="4"  width="4"  height="8"  fill="#1a1a1a"/>
  <rect x="8"  y="4"  width="8"  height="4"  fill="#2e2e3e"/>
  <rect x="8"  y="8"  width="4"  height="4"  fill="#f8d030"/>
  <rect x="16" y="4"  width="4"  height="8"  fill="#1a1a1a"/>
  <rect x="44" y="0"  width="16" height="4"  fill="#1a1a1a"/>
  <rect x="44" y="4"  width="4"  height="8"  fill="#1a1a1a"/>
  <rect x="52" y="4"  width="8"  height="4"  fill="#2e2e3e"/>
  <rect x="52" y="8"  width="4"  height="4"  fill="#f8d030"/>
  <rect x="56" y="4"  width="4"  height="8"  fill="#1a1a1a"/>
  <!-- ── 머리 ── -->
  <rect x="4"  y="12" width="4"  height="4"  fill="#1a1a1a"/>
  <rect x="8"  y="12" width="48" height="4"  fill="#2e2e3e"/>
  <rect x="56" y="12" width="4"  height="4"  fill="#1a1a1a"/>
  <rect x="4"  y="16" width="4"  height="4"  fill="#1a1a1a"/>
  <rect x="8"  y="16" width="8"  height="4"  fill="#3e3e50"/>
  <rect x="16" y="16" width="32" height="4"  fill="#2e2e3e"/>
  <rect x="48" y="16" width="8"  height="4"  fill="#3e3e50"/>
  <rect x="56" y="16" width="4"  height="4"  fill="#1a1a1a"/>
  <!-- ── 눈 (흰 눈동자 + 검정) ── -->
  <rect x="0"  y="20" width="4"  height="4"  fill="#1a1a1a"/>
  <rect x="4"  y="20" width="8"  height="4"  fill="#2e2e3e"/>
  <rect x="12" y="20" width="4"  height="4"  fill="#ffffff"/>
  <rect x="16" y="20" width="4"  height="4"  fill="#1a1a1a"/>
  <rect x="20" y="20" width="20" height="4"  fill="#2e2e3e"/>
  <rect x="40" y="20" width="4"  height="4"  fill="#ffffff"/>
  <rect x="44" y="20" width="4"  height="4"  fill="#1a1a1a"/>
  <rect x="48" y="20" width="8"  height="4"  fill="#2e2e3e"/>
  <rect x="56" y="20" width="4"  height="4"  fill="#1a1a1a"/>
  <!-- 눈 아래줄 -->
  <rect x="0"  y="24" width="4"  height="4"  fill="#1a1a1a"/>
  <rect x="4"  y="24" width="8"  height="4"  fill="#2e2e3e"/>
  <rect x="12" y="24" width="4"  height="4"  fill="#ffffff"/>
  <rect x="16" y="24" width="4"  height="4"  fill="#1a1a1a"/>
  <rect x="20" y="24" width="20" height="4"  fill="#2e2e3e"/>
  <rect x="40" y="24" width="4"  height="4"  fill="#ffffff"/>
  <rect x="44" y="24" width="4"  height="4"  fill="#1a1a1a"/>
  <rect x="48" y="24" width="8"  height="4"  fill="#2e2e3e"/>
  <rect x="56" y="24" width="4"  height="4"  fill="#1a1a1a"/>
  <!-- ── 주둥이 ── -->
  <rect x="0"  y="28" width="4"  height="4"  fill="#1a1a1a"/>
  <rect x="4"  y="28" width="12" height="4"  fill="#2e2e3e"/>
  <rect x="16" y="28" width="28" height="4"  fill="#4a4a5e"/>
  <rect x="44" y="28" width="12" height="4"  fill="#2e2e3e"/>
  <rect x="56" y="28" width="4"  height="4"  fill="#1a1a1a"/>
  <!-- 코 + 입 -->
  <rect x="0"  y="32" width="4"  height="4"  fill="#1a1a1a"/>
  <rect x="4"  y="32" width="12" height="4"  fill="#2e2e3e"/>
  <rect x="16" y="32" width="8"  height="4"  fill="#4a4a5e"/>
  <rect x="24" y="32" width="4"  height="4"  fill="#1a1a1a"/>
  <rect x="28" y="32" width="8"  height="4"  fill="#4a4a5e"/>
  <rect x="36" y="32" width="4"  height="4"  fill="#1a1a1a"/>
  <rect x="40" y="32" width="4"  height="4"  fill="#4a4a5e"/>
  <rect x="44" y="32" width="12" height="4"  fill="#2e2e3e"/>
  <rect x="56" y="32" width="4"  height="4"  fill="#1a1a1a"/>
  <!-- ── 몸통 ── -->
  <rect x="0"  y="36" width="4"  height="4"  fill="#1a1a1a"/>
  <rect x="4"  y="36" width="56" height="4"  fill="#2e2e3e"/>
  <rect x="60" y="36" width="4"  height="4"  fill="#1a1a1a"/>
  <!-- 번개 줄무늬 (노란색) -->
  <rect x="0"  y="40" width="4"  height="4"  fill="#1a1a1a"/>
  <rect x="4"  y="40" width="8"  height="4"  fill="#2e2e3e"/>
  <rect x="12" y="40" width="8"  height="4"  fill="#f8d030"/>
  <rect x="20" y="40" width="24" height="4"  fill="#2e2e3e"/>
  <rect x="44" y="40" width="8"  height="4"  fill="#f8d030"/>
  <rect x="52" y="40" width="8"  height="4"  fill="#2e2e3e"/>
  <rect x="60" y="40" width="4"  height="4"  fill="#1a1a1a"/>
  <!-- 번개 줄무늬 2단 -->
  <rect x="0"  y="44" width="4"  height="4"  fill="#1a1a1a"/>
  <rect x="4"  y="44" width="12" height="4"  fill="#2e2e3e"/>
  <rect x="16" y="44" width="4"  height="4"  fill="#f8d030"/>
  <rect x="20" y="44" width="24" height="4"  fill="#2e2e3e"/>
  <rect x="44" y="44" width="4"  height="4"  fill="#f8d030"/>
  <rect x="48" y="44" width="12" height="4"  fill="#2e2e3e"/>
  <rect x="60" y="44" width="4"  height="4"  fill="#1a1a1a"/>
  <!-- ── 팔 ── -->
  <rect x="0"  y="48" width="4"  height="4"  fill="#1a1a1a"/>
  <rect x="4"  y="48" width="8"  height="8"  fill="#2e2e3e"/>
  <rect x="12" y="48" width="4"  height="4"  fill="#1a1a1a"/>
  <rect x="16" y="48" width="28" height="4"  fill="#2e2e3e"/>
  <rect x="44" y="48" width="4"  height="4"  fill="#1a1a1a"/>
  <rect x="48" y="48" width="8"  height="8"  fill="#2e2e3e"/>
  <rect x="56" y="48" width="4"  height="4"  fill="#1a1a1a"/>
  <!-- 손 발톱 -->
  <rect x="0"  y="52" width="16" height="4"  fill="#1a1a1a"/>
  <rect x="44" y="52" width="16" height="4"  fill="#1a1a1a"/>
  <!-- ── 다리 ── -->
  <rect x="12" y="52" width="4"  height="4"  fill="#1a1a1a"/>
  <rect x="16" y="52" width="12" height="4"  fill="#2e2e3e"/>
  <rect x="28" y="52" width="8"  height="4"  fill="#1a1a1a"/>
  <rect x="36" y="52" width="12" height="4"  fill="#2e2e3e"/>
  <rect x="48" y="52" width="4"  height="4"  fill="#1a1a1a"/>
  <rect x="12" y="56" width="4"  height="4"  fill="#1a1a1a"/>
  <rect x="16" y="56" width="12" height="4"  fill="#2e2e3e"/>
  <rect x="28" y="56" width="8"  height="4"  fill="#1a1a1a"/>
  <rect x="36" y="56" width="12" height="4"  fill="#2e2e3e"/>
  <rect x="48" y="56" width="4"  height="4"  fill="#1a1a1a"/>
  <!-- 발 -->
  <rect x="8"  y="60" width="4"  height="4"  fill="#1a1a1a"/>
  <rect x="12" y="60" width="16" height="4"  fill="#1e1e2e"/>
  <rect x="28" y="60" width="8"  height="4"  fill="#1a1a1a"/>
  <rect x="36" y="60" width="16" height="4"  fill="#1e1e2e"/>
  <rect x="52" y="60" width="4"  height="4"  fill="#1a1a1a"/>
  <!-- 발 바닥 -->
  <rect x="8"  y="64" width="24" height="4"  fill="#1a1a1a"/>
  <rect x="36" y="64" width="20" height="4"  fill="#1a1a1a"/>
</svg>
